<svg width="500" height="500" viewBox="0 0 500 500" fill="none" xmlns="http://www.w3.org/2000/svg">
<path d="M113.515 174.823L94.5624 186.81L291.939 477.03L310.891 465.042L113.515 174.823Z" fill="#E6E6E6"/>
<path d="M68.3946 65.6052L112.244 130.08C113.093 131.329 113.393 132.852 113.078 134.314C112.763 135.776 111.859 137.057 110.564 137.876C109.269 138.695 107.69 138.984 106.174 138.68C104.658 138.376 103.33 137.504 102.481 136.256L52.0706 62.1338C45.2282 61.5827 38.3507 62.672 32.0504 65.3046L86.9742 146.064C87.8228 147.312 88.1224 148.835 87.8072 150.296C87.492 151.758 86.5878 153.039 85.2933 153.858C83.9989 154.676 82.4203 154.966 80.9046 154.662C79.3889 154.359 78.0603 153.487 77.211 152.239L22.2872 71.48C17.2731 76.0038 13.4969 81.6532 11.2947 87.925L61.7047 162.047C62.5532 163.296 62.8529 164.818 62.5376 166.28C62.2224 167.741 61.3182 169.022 60.0238 169.841C58.7293 170.66 57.1507 170.949 55.6351 170.646C54.1194 170.342 52.7908 169.47 51.9414 168.222L8.09224 103.747C6.966 121.725 13.0438 143.032 26.3637 162.618C51.1194 199.018 91.5008 215.678 116.558 199.829C141.616 183.98 141.86 141.623 117.104 105.223C103.784 85.6376 85.9409 71.7718 68.3946 65.6052Z" fill="#E6E6E6"/>
<path d="M198.489 135.12H175.824V482.192H198.489V135.12Z" fill="#E6E6E6"/>
<path d="M186.813 157.64C216.779 157.64 241.071 122.351 241.071 78.8199C241.071 35.2889 216.779 0 186.813 0C156.847 0 132.555 35.2889 132.555 78.8199C132.555 122.351 156.847 157.64 186.813 157.64Z" fill="#E6E6E6"/>
<path d="M186.813 143.672C211.469 143.672 231.456 114.637 231.456 78.8199C231.456 43.0033 211.469 13.9681 186.813 13.9681C162.158 13.9681 142.17 43.0033 142.17 78.8199C142.17 114.637 162.158 143.672 186.813 143.672Z" fill="#CCCCCC"/>
<path d="M250 500C388.071 500 500 493.807 500 486.167C500 478.527 388.071 472.333 250 472.333C111.929 472.333 0 478.527 0 486.167C0 493.807 111.929 500 250 500Z" fill="#E6E6E6"/>
<path d="M397.849 485.963C304.159 469.677 208.204 469.677 114.514 485.963C113.026 486.223 111.496 486.165 110.034 485.793C108.571 485.421 107.212 484.744 106.05 483.809C104.889 482.875 103.954 481.706 103.312 480.386C102.67 479.065 102.337 477.624 102.335 476.166V352.371H410.027V476.166C410.026 477.624 409.692 479.065 409.05 480.386C408.409 481.706 407.474 482.875 406.312 483.809C405.151 484.744 403.791 485.421 402.329 485.793C400.866 486.165 399.337 486.223 397.849 485.963Z" fill="#6C63FF"/>
<path d="M381.868 260.967C374.763 260.961 367.708 262.099 360.992 264.336C351.197 243.847 335.546 226.479 315.874 214.267C296.203 202.056 273.328 195.509 249.934 195.395C226.54 195.282 203.598 201.605 183.8 213.624C164.002 225.643 148.169 242.858 138.16 263.25C128.304 260.584 117.928 260.241 107.906 262.25C97.8839 264.259 88.5094 268.561 80.572 274.795C72.6345 281.028 66.3667 289.01 62.2965 298.068C58.2264 307.126 56.473 316.994 57.1841 326.842C57.8953 336.69 61.0501 346.229 66.3829 354.655C71.7157 363.081 79.0702 370.148 87.8269 375.26C96.5837 380.373 106.486 383.381 116.7 384.031C126.914 384.681 137.141 382.954 146.518 378.996C157.789 395.559 173.184 409.135 191.295 418.484C209.407 427.832 229.659 432.656 250.202 432.513C270.744 432.37 290.922 427.267 308.893 417.668C326.863 408.069 342.053 394.281 353.076 377.563C361.688 381.755 371.172 384.012 380.817 384.165C390.463 384.317 400.019 382.361 408.768 378.443C417.517 374.524 425.233 368.746 431.335 361.541C437.438 354.336 441.769 345.891 444.004 336.841C446.239 327.791 446.319 318.371 444.239 309.286C442.159 300.202 437.972 291.69 431.993 284.389C426.015 277.089 418.399 271.188 409.717 267.132C401.036 263.075 391.515 260.967 381.868 260.967Z" fill="#6C63FF"/>
<path d="M127.06 313.955H125.687C125.64 296.318 129.687 278.895 137.532 262.964L138.774 263.531C131.016 279.285 127.014 296.515 127.06 313.955Z" fill="#3F3D56"/>
<path d="M372.94 313.955H371.566C371.608 296.917 367.789 280.075 360.375 264.609L361.623 264.054C369.12 279.694 372.983 296.725 372.94 313.955Z" fill="#3F3D56"/>
<path d="M102.501 409.977L102.169 408.691C102.557 408.598 141.595 399.352 198.804 394.764C251.607 390.53 331.144 389.508 410.195 408.691L409.86 409.976C331.002 390.841 251.639 391.858 198.947 396.082C141.84 400.66 102.887 409.884 102.501 409.977Z" fill="#3F3D56"/>
<path d="M102.501 427.86L102.169 426.574C102.557 426.482 141.595 417.235 198.804 412.648C251.607 408.413 331.144 407.392 410.195 426.575L409.86 427.86C331.002 408.724 251.639 409.743 198.947 413.966C141.84 418.543 102.887 427.768 102.501 427.86Z" fill="#3F3D56"/>
<path d="M102.501 445.744L102.169 444.458C102.557 444.365 141.595 435.119 198.804 430.531C251.607 426.297 331.144 425.275 410.195 444.458L409.86 445.743C331.002 426.608 251.639 427.626 198.947 431.849C141.84 436.427 102.887 445.651 102.501 445.744Z" fill="#3F3D56"/>
<path d="M355.266 348.501L338.624 343.044L354.6 264.404L343.617 263.441C332.906 271.365 318.644 274.472 300.348 272.107L329.637 314.798L314.703 324.964L267.06 269.853C264.912 267.369 263.736 264.237 263.736 261.003C263.736 258.005 264.747 255.088 266.617 252.692C268.486 250.297 271.113 248.552 274.101 247.722L324.978 233.59L384.555 240.009C393.562 253.252 393.915 262.463 380.203 265.12L355.266 348.501Z" fill="#2F2E41"/>
<path d="M338.233 379.093C336.513 378.988 334.842 378.493 333.357 377.649C331.873 376.805 330.615 375.634 329.688 374.233C328.76 372.832 328.188 371.24 328.018 369.586C327.848 367.932 328.085 366.262 328.71 364.713L336.983 344.196C341.185 336.519 346.953 337.48 353.764 344.196L357.092 353.612C357.366 354.387 357.475 355.208 357.412 356.024C357.349 356.841 357.115 357.637 356.725 358.365L348.661 373.4C347.683 375.223 346.176 376.732 344.325 377.743C342.473 378.753 340.356 379.223 338.233 379.093Z" fill="#2F2E41"/>
<path d="M316.725 352.226C315.005 352.121 313.335 351.626 311.85 350.782C310.365 349.938 309.108 348.767 308.18 347.367C307.252 345.966 306.68 344.373 306.51 342.719C306.341 341.065 306.578 339.395 307.202 337.846L315.476 317.329C319.678 309.652 325.446 310.613 332.256 317.329L335.585 326.745C335.859 327.52 335.967 328.341 335.904 329.157C335.841 329.974 335.607 330.77 335.217 331.498L327.153 346.533C326.176 348.356 324.669 349.865 322.817 350.876C320.966 351.887 318.849 352.356 316.725 352.226Z" fill="#2F2E41"/>
<path d="M327.308 158.48C337.602 158.48 345.946 150.432 345.946 140.505C345.946 130.578 337.602 122.53 327.308 122.53C317.014 122.53 308.669 130.578 308.669 140.505C308.669 150.432 317.014 158.48 327.308 158.48Z" fill="#FFB9B9"/>
<path d="M356.264 165.863L330.636 178.702L325.31 155.591L342.951 144.999L356.264 165.863Z" fill="#FFB9B9"/>
<path d="M387.218 243.219C361.645 235.77 338.442 231.911 321.65 237.762C327.438 222.059 316.754 198.08 305.008 173.566C310.076 167.177 318.157 164.702 327.308 163.616C337.319 170.626 344.3 166.127 349.608 155.27C361.183 154.822 372.338 158.775 383.224 165.542C374.714 191.828 376.246 217.712 387.218 243.219Z" fill="#3F3D56"/>
<path d="M321.317 241.614C317.278 243.91 313.552 247.776 310 252.527C303.999 248.985 298.717 244.951 294.557 240.153C291.644 236.751 289.658 232.702 288.779 228.373C287.9 224.044 288.155 219.572 289.522 215.362L300.896 179.713C301.841 176.752 303.676 174.128 306.169 172.175L307.67 170.998L322.648 198.282L307.67 225.244C309.57 230.155 315.167 235.828 321.317 241.614Z" fill="#3F3D56"/>
<path d="M326.472 268.794C325.114 269.391 323.631 269.675 322.139 269.624C320.648 269.573 319.189 269.187 317.879 268.499C316.569 267.81 315.442 266.837 314.589 265.656C313.736 264.475 313.18 263.119 312.964 261.695L310.489 245.351L319.143 240.858L330.125 254.723C331.003 255.83 331.61 257.114 331.902 258.479C332.194 259.844 332.163 261.255 331.812 262.607C331.461 263.959 330.799 265.217 329.874 266.288C328.95 267.36 327.787 268.216 326.472 268.794Z" fill="#FFB9B9"/>
<path d="M346.113 139.719L342.93 139.81L334.103 127.75C322.791 128.878 313.522 133.617 305.679 140.877L304.883 135.764C304.125 130.888 305.333 125.917 308.259 121.873C311.185 117.83 315.606 115.022 320.613 114.026H320.613C323.244 113.503 325.956 113.497 328.589 114.007C331.222 114.517 333.721 115.534 335.937 116.997C338.153 118.459 340.041 120.338 341.488 122.519C342.935 124.701 343.911 127.142 344.358 129.696L346.113 139.719Z" fill="#2F2E41"/>
<path d="M310.322 252.534C309.702 251.224 309.408 249.794 309.461 248.356C309.514 246.917 309.914 245.511 310.628 244.247C311.342 242.983 312.351 241.897 313.576 241.075C314.8 240.252 316.207 239.716 317.683 239.508L334.63 237.12L339.29 245.466L324.912 256.057C323.764 256.903 322.433 257.489 321.017 257.771C319.602 258.052 318.139 258.023 316.737 257.684C315.335 257.346 314.03 256.707 312.92 255.815C311.809 254.924 310.921 253.802 310.322 252.534Z" fill="#FFB9B9"/>
<path d="M390.447 237.668C374.323 238.875 356.72 243.724 338.291 250.602C338.062 245.326 336.078 240.261 332.633 236.157C349.371 231.906 364.559 226.917 373.904 219.145L368.246 178.06L380.561 164.579L382.685 165.648C384.45 166.532 386.001 167.763 387.24 169.263C388.479 170.763 389.377 172.497 389.876 174.353C395.075 193.859 397.385 212.547 395.797 230.135C396.002 231.802 395.573 233.485 394.589 234.87C393.605 236.256 392.133 237.25 390.447 237.668Z" fill="#3F3D56"/>
<path d="M65.8557 482.267C50.861 491.311 35.8662 491.307 20.8714 482.255C20.3967 481.973 20.0112 481.571 19.7567 481.093C19.5023 480.615 19.3887 480.078 19.4282 479.542L24.1071 420.883H61.9508L67.2962 479.521C67.3423 480.063 67.2322 480.606 66.9779 481.09C66.7237 481.575 66.3352 481.982 65.8557 482.267Z" fill="#3F3D56"/>
<path d="M42.8544 428.182C53.401 428.182 61.9508 425.212 61.9508 421.547C61.9508 417.882 53.401 414.911 42.8544 414.911C32.3077 414.911 23.7579 417.882 23.7579 421.547C23.7579 425.212 32.3077 428.182 42.8544 428.182Z" fill="#3F3D56"/>
<path d="M57.8224 419.307C47.8716 426.057 38.2386 426.057 28.9235 419.307V408.69H57.8224V419.307Z" fill="#6C63FF"/>
<path d="M43.373 413.998C51.3532 413.998 57.8224 411.622 57.8224 408.69C57.8224 405.758 51.3532 403.381 43.373 403.381C35.3928 403.381 28.9235 405.758 28.9235 408.69C28.9235 411.622 35.3928 413.998 43.373 413.998Z" fill="#6C63FF"/>
<path d="M44.0611 408.69C44.8211 408.69 45.4372 408.393 45.4372 408.026C45.4372 407.66 44.8211 407.363 44.0611 407.363C43.3011 407.363 42.6849 407.66 42.6849 408.026C42.6849 408.393 43.3011 408.69 44.0611 408.69Z" fill="#E6E6E6"/>
<path d="M50.5591 408.69C51.3191 408.69 51.9352 408.393 51.9352 408.026C51.9352 407.66 51.3191 407.363 50.5591 407.363C49.799 407.363 49.1829 407.66 49.1829 408.026C49.1829 408.393 49.799 408.69 50.5591 408.69Z" fill="#E6E6E6"/>
<path d="M47.31 410.256C48.07 410.256 48.6862 409.959 48.6862 409.593C48.6862 409.226 48.07 408.929 47.31 408.929C46.55 408.929 45.9339 409.226 45.9339 409.593C45.9339 409.959 46.55 410.256 47.31 410.256Z" fill="#E6E6E6"/>
<path d="M34.314 410.256C35.074 410.256 35.6901 409.959 35.6901 409.593C35.6901 409.226 35.074 408.929 34.314 408.929C33.554 408.929 32.9379 409.226 32.9379 409.593C32.9379 409.959 33.554 410.256 34.314 410.256Z" fill="#E6E6E6"/>
<path d="M37.563 408.69C38.323 408.69 38.9392 408.393 38.9392 408.026C38.9392 407.66 38.323 407.363 37.563 407.363C36.803 407.363 36.1869 407.66 36.1869 408.026C36.1869 408.393 36.803 408.69 37.563 408.69Z" fill="#E6E6E6"/>
<path d="M40.812 411.04C41.5721 411.04 42.1882 410.743 42.1882 410.376C42.1882 410.01 41.5721 409.713 40.812 409.713C40.052 409.713 39.4359 410.01 39.4359 410.376C39.4359 410.743 40.052 411.04 40.812 411.04Z" fill="#E6E6E6"/>
<path d="M481.378 482.267C466.383 491.311 451.388 491.307 436.393 482.255C435.919 481.973 435.533 481.571 435.279 481.093C435.024 480.615 434.911 480.078 434.95 479.542L439.629 420.883H477.473L482.818 479.521C482.864 480.063 482.754 480.606 482.5 481.09C482.246 481.575 481.857 481.982 481.378 482.267Z" fill="#3F3D56"/>
<path d="M458.376 428.182C468.923 428.182 477.473 425.212 477.473 421.547C477.473 417.882 468.923 414.911 458.376 414.911C447.83 414.911 439.28 417.882 439.28 421.547C439.28 425.212 447.83 428.182 458.376 428.182Z" fill="#3F3D56"/>
<path d="M473.344 419.307C463.394 426.057 453.761 426.057 444.446 419.307V408.69H473.344V419.307Z" fill="#6C63FF"/>
<path d="M458.895 413.998C466.875 413.998 473.344 411.622 473.344 408.69C473.344 405.758 466.875 403.381 458.895 403.381C450.915 403.381 444.446 405.758 444.446 408.69C444.446 411.622 450.915 413.998 458.895 413.998Z" fill="#6C63FF"/>
<path d="M459.583 408.69C460.343 408.69 460.959 408.393 460.959 408.026C460.959 407.66 460.343 407.363 459.583 407.363C458.823 407.363 458.207 407.66 458.207 408.026C458.207 408.393 458.823 408.69 459.583 408.69Z" fill="#E6E6E6"/>
<path d="M466.081 408.69C466.841 408.69 467.457 408.393 467.457 408.026C467.457 407.66 466.841 407.363 466.081 407.363C465.321 407.363 464.705 407.66 464.705 408.026C464.705 408.393 465.321 408.69 466.081 408.69Z" fill="#E6E6E6"/>
<path d="M462.832 410.256C463.592 410.256 464.208 409.959 464.208 409.593C464.208 409.226 463.592 408.929 462.832 408.929C462.072 408.929 461.456 409.226 461.456 409.593C461.456 409.959 462.072 410.256 462.832 410.256Z" fill="#E6E6E6"/>
<path d="M449.836 410.256C450.596 410.256 451.212 409.959 451.212 409.593C451.212 409.226 450.596 408.929 449.836 408.929C449.076 408.929 448.46 409.226 448.46 409.593C448.46 409.959 449.076 410.256 449.836 410.256Z" fill="#E6E6E6"/>
<path d="M453.085 408.69C453.845 408.69 454.461 408.393 454.461 408.026C454.461 407.66 453.845 407.363 453.085 407.363C452.325 407.363 451.709 407.66 451.709 408.026C451.709 408.393 452.325 408.69 453.085 408.69Z" fill="#E6E6E6"/>
<path d="M456.334 411.04C457.094 411.04 457.71 410.743 457.71 410.376C457.71 410.01 457.094 409.713 456.334 409.713C455.574 409.713 454.958 410.01 454.958 410.376C454.958 410.743 455.574 411.04 456.334 411.04Z" fill="#E6E6E6"/>
</svg>
