<svg width="280" height="80" viewBox="0 0 280 80" fill="none" xmlns="http://www.w3.org/2000/svg">
<path d="M9.78938 52.8082C9.72168 53.0721 9.69984 53.3481 9.73805 53.628C10.2523 57.3793 12.5454 61.1426 16.5527 64.8129C20.6201 68.5372 24.7453 70.6498 28.8138 71.0917C28.9154 71.1027 29.0158 71.1087 29.1152 71.1087C29.2921 71.1087 29.4602 71.0697 29.6306 71.0367C29.7878 71.2697 29.9865 71.4826 30.2322 71.6576C33.4905 73.9771 38.0175 75.1539 43.6879 75.1539C49.4401 75.1539 53.989 73.9761 57.2069 71.6546C57.4351 71.4906 57.6251 71.2957 57.7757 71.0807C57.957 71.1177 58.1383 71.1567 58.3283 71.1567C58.4342 71.1567 58.5401 71.1507 58.6471 71.1377C62.744 70.6668 66.8528 68.5672 70.8612 64.8979C74.9275 61.1736 77.2347 57.3973 77.7185 53.671C77.7523 53.4091 77.737 53.1491 77.6781 52.9002C77.9227 52.7582 78.152 52.5902 78.3376 52.3723C80.8708 49.3898 82.156 45.2436 82.156 40.0526C82.156 34.7876 80.8708 30.6234 78.3343 27.675C78.1585 27.471 77.951 27.3 77.7228 27.1641C77.7873 26.9041 77.808 26.6322 77.7698 26.3562C77.2555 22.6049 74.9625 18.8417 70.9551 15.1714C66.8889 11.4481 62.7636 9.33547 58.694 8.89355C58.4123 8.86656 58.135 8.88156 57.8696 8.93355C57.7146 8.70559 57.517 8.49863 57.2767 8.32766C54.0163 6.0081 49.4892 4.83133 43.8211 4.83133C38.0711 4.83133 33.5232 6.00911 30.3032 8.32966C30.0804 8.49163 29.8937 8.6826 29.7452 8.89256C29.4624 8.83257 29.1654 8.81457 28.8651 8.84756C24.7683 9.31847 20.6583 11.4171 16.6499 15.0874C12.5825 18.8117 10.2764 22.5889 9.79265 26.3142C9.7588 26.5722 9.77518 26.8281 9.83087 27.0721C9.58409 27.2141 9.36025 27.393 9.17463 27.612C6.64029 30.5974 5.3562 34.7436 5.3562 39.9326C5.3562 45.1996 6.64138 49.3648 9.1779 52.3113C9.34824 52.5142 9.56226 52.6722 9.78938 52.8082ZM10.8944 28.8388C10.9927 28.7248 11.1532 28.6908 11.305 28.7308C11.3366 28.7428 11.3639 28.7608 11.3956 28.7718L13.7203 29.6556C11.8454 32.2901 10.9239 35.6584 10.9239 39.9236C10.9239 44.1868 11.8673 47.6522 13.7181 50.2557L11.305 51.1675C11.3017 51.1685 11.2984 51.1715 11.294 51.1725C11.1368 51.2115 10.9828 51.1825 10.8889 51.0725C8.69528 48.523 7.53566 44.6717 7.53566 39.9316C7.53566 35.1985 8.66579 31.4653 10.8944 28.8388ZM23.6611 61.0916C22.9928 60.4797 22.6248 59.6659 22.6248 58.801C22.6248 57.9352 22.9928 57.1214 23.6611 56.5095C24.3293 55.8976 25.2181 55.5607 26.1637 55.5607C27.1093 55.5607 27.997 55.8976 28.6664 56.5095C29.3357 57.1214 29.7026 57.9352 29.7026 58.801C29.7026 59.6659 29.3346 60.4797 28.6664 61.0916C27.3288 62.3164 24.9987 62.3164 23.6611 61.0916ZM16.5778 51.3545L27.3157 47.2922C27.0089 48.571 27.3889 49.9617 28.472 50.9545C29.3172 51.7284 30.4277 52.1153 31.5381 52.1153C32.6486 52.1153 33.758 51.7284 34.6031 50.9545C36.2923 49.4068 36.2923 46.8893 34.6031 45.3416C34.3782 45.1356 34.1336 44.9617 33.8759 44.8107L41.7301 41.8393L31.299 64.8049C30.1732 64.6279 29.0355 64.285 27.889 63.7741C28.7516 63.5241 29.5508 63.1092 30.2093 62.5063C31.2903 61.5175 31.8854 60.2008 31.8854 58.802C31.8854 57.4023 31.2903 56.0866 30.2093 55.0967C29.1283 54.1069 27.6913 53.562 26.1626 53.562C24.634 53.562 23.197 54.1069 22.116 55.0967C21.1748 55.9586 20.6288 57.0734 20.4967 58.2701C17.5169 55.0758 16.8038 52.6132 16.5778 51.3545ZM42.3 64.6799C42.3 62.8933 43.8877 61.4395 45.8389 61.4395C47.7902 61.4395 49.3778 62.8933 49.3778 64.6799C49.3778 66.4666 47.7902 67.9193 45.8389 67.9193C43.8877 67.9193 42.3 66.4666 42.3 64.6799ZM40.1162 64.6799C40.1162 65.9327 40.6196 67.0695 41.4232 67.9713C36.8481 67.6434 34.4415 66.3636 33.3092 65.6197L37.7653 55.7956C38.5362 56.8984 39.8782 57.6363 41.4112 57.6363C43.8014 57.6363 45.7461 55.8556 45.7461 53.667C45.7461 51.4784 43.8014 49.6968 41.4112 49.6968C41.0935 49.6968 40.7856 49.7328 40.4875 49.7918L43.7468 42.6061L54.1058 65.5977C53.1722 66.2006 52.1022 66.6955 50.8956 67.0765C51.3061 66.3546 51.5606 65.5468 51.5606 64.6789C51.5606 61.7895 48.9935 59.4389 45.8378 59.4389C42.6844 59.4399 40.1162 61.7905 40.1162 64.6799ZM67.8312 56.0976C67.8312 56.9624 67.4632 57.7762 66.795 58.3881C65.4574 59.6129 63.1272 59.6129 61.7907 58.3881C61.1225 57.7762 60.7545 56.9624 60.7545 56.0976C60.7545 55.2317 61.1225 54.4179 61.7907 53.806C62.459 53.1941 63.3478 52.8572 64.2934 52.8572C65.239 52.8572 66.1267 53.1941 66.7961 53.806C67.4654 54.4179 67.8312 55.2317 67.8312 56.0976ZM63.7114 61.2846C60.2238 64.015 57.5333 64.6679 56.1586 64.8749L51.7222 55.0418C52.0301 55.1037 52.3424 55.1427 52.6568 55.1427C53.7673 55.1427 54.8767 54.7558 55.7219 53.983C57.4121 52.4353 57.4121 49.9167 55.7219 48.369C54.0316 46.8233 51.281 46.8223 49.5908 48.369C49.3658 48.575 49.1758 48.7989 49.0109 49.0349L45.7658 41.8433L70.8471 51.3934C70.6527 52.4243 70.2793 53.4661 69.7202 54.5159C69.4472 53.726 68.9941 52.9951 68.3367 52.3923C67.2557 51.4024 65.8188 50.8576 64.2901 50.8576C62.7614 50.8576 61.3245 51.4024 60.2435 52.3923C59.1625 53.3821 58.5674 54.6978 58.5674 56.0976C58.5674 57.4963 59.1625 58.813 60.2435 59.8018C61.1869 60.6647 62.4044 61.1646 63.7114 61.2846ZM74.3073 42.1242C73.9492 46.3144 72.5515 48.518 71.7392 49.5538L61.0111 45.4736C62.2155 44.7677 63.0202 43.5389 63.0202 42.1342C63.0202 39.9466 61.0755 38.165 58.6853 38.165C56.2951 38.165 54.3504 39.9456 54.3504 42.1342C54.3504 42.4252 54.3897 42.7071 54.4541 42.9801L46.6065 39.9966L71.7162 30.5104C72.3746 31.3653 72.9151 32.3451 73.3312 33.4489C72.5428 33.0729 71.6605 32.841 70.7127 32.841C67.5571 32.841 64.99 35.1925 64.99 38.081C64.99 40.9694 67.5571 43.32 70.7127 43.32C72.0809 43.321 73.3224 42.8601 74.3073 42.1242ZM70.7127 41.3214C68.7615 41.3214 67.1739 39.8687 67.1739 38.082C67.1739 36.2953 68.7615 34.8416 70.7127 34.8416C72.664 34.8416 74.2516 36.2953 74.2516 38.082C74.2516 39.8687 72.664 41.3214 70.7127 41.3214ZM63.8424 18.8936C65.2215 20.1574 65.2215 22.213 63.8424 23.4768C62.4622 24.7405 60.2173 24.7405 58.8382 23.4768C57.458 22.213 57.458 20.1574 58.8382 18.8936C59.5064 18.2818 60.3952 17.9448 61.3408 17.9448C62.2864 17.9448 63.1742 18.2818 63.8424 18.8936ZM70.9257 28.6328L60.1878 32.694C60.4946 31.4143 60.1146 30.0235 59.0304 29.0307C57.3401 27.484 54.5895 27.484 52.8993 29.0307C51.209 30.5784 51.209 33.0969 52.8993 34.6446C53.1242 34.8506 53.3699 35.0246 53.6265 35.1755L45.7712 38.147L56.2023 15.1814C57.3281 15.3593 58.4647 15.7013 59.6113 16.2122C58.7486 16.4621 57.9504 16.877 57.292 17.4799C55.0612 19.5235 55.0612 22.8469 57.292 24.8905C58.4069 25.9113 59.8733 26.4222 61.3387 26.4222C62.804 26.4222 64.2694 25.9113 65.3853 24.8905C66.3527 24.0037 66.8747 22.8749 67.0035 21.7151C69.9866 24.9105 70.6996 27.374 70.9257 28.6328ZM45.2023 15.3063C45.2023 17.093 43.6147 18.5457 41.6635 18.5457C39.7122 18.5457 38.1246 17.093 38.1246 15.3063C38.1246 13.5197 39.7122 12.0659 41.6635 12.0659C43.6147 12.0659 45.2023 13.5197 45.2023 15.3063ZM47.3862 15.3063C47.3862 14.0536 46.8839 12.9168 46.0792 12.015C50.6554 12.3429 53.062 13.6217 54.1932 14.3655L49.7371 24.1906C48.9662 23.0868 47.6242 22.35 46.0901 22.35C43.6999 22.35 41.7552 24.1307 41.7552 26.3202C41.7552 28.5078 43.6999 30.2895 46.0901 30.2895C46.4078 30.2895 46.7157 30.2535 47.0138 30.1945L43.7545 37.3811L33.3944 14.3885C34.3291 13.7856 35.398 13.2907 36.6046 12.9108C36.1941 13.6327 35.9396 14.4405 35.9396 15.3093C35.9396 18.1988 38.5067 20.5483 41.6624 20.5483C44.818 20.5483 47.3862 18.1958 47.3862 15.3063ZM20.7096 21.5971C21.3779 20.9853 22.2667 20.6483 23.2123 20.6483C24.1579 20.6483 25.0467 20.9853 25.7149 21.5971C26.3832 22.209 26.7512 23.0229 26.7512 23.8887C26.7512 24.7535 26.3832 25.5674 25.7149 26.1793C24.3774 27.404 22.0472 27.404 20.7107 26.1793C20.0425 25.5674 19.6745 24.7535 19.6745 23.8887C19.6723 23.0229 20.0403 22.21 20.7096 21.5971ZM23.7932 18.7007C27.2797 15.9712 29.9701 15.3183 31.3438 15.1114L35.7791 24.9425C34.3826 24.6615 32.8637 25.0095 31.7805 26.0023C30.0913 27.55 30.0913 30.0675 31.7805 31.6152C32.6257 32.3891 33.7362 32.776 34.8455 32.776C35.956 32.776 37.0665 32.3891 37.9116 31.6152C38.1355 31.4093 38.3255 31.1853 38.4903 30.9503L41.7355 38.142L16.6542 28.5908C16.8486 27.56 17.222 26.5192 17.7811 25.4694C18.0541 26.2582 18.5072 26.9901 19.1646 27.592C20.2455 28.5818 21.6825 29.1267 23.2112 29.1267C24.7399 29.1267 26.1768 28.5818 27.2578 27.592C28.3388 26.6032 28.9339 25.2864 28.9339 23.8877C28.9339 22.488 28.3388 21.1722 27.2578 20.1824C26.3166 19.3216 25.0991 18.8217 23.7932 18.7007ZM13.1961 37.862C13.5543 33.6718 14.9519 31.4692 15.7632 30.4324L26.4924 34.5127C25.288 35.2185 24.4822 36.4473 24.4822 37.851C24.4822 40.0386 26.4269 41.8203 28.8171 41.8203C31.2073 41.8203 33.152 40.0396 33.152 37.851C33.152 37.5601 33.1127 37.2791 33.0482 37.0062L40.8947 39.9906L15.7851 49.4758C15.1267 48.621 14.5862 47.6412 14.1701 46.5364C14.9585 46.9123 15.8408 47.1443 16.7885 47.1443C19.9442 47.1443 22.5113 44.7937 22.5113 41.9053C22.5113 39.0168 19.9442 36.6653 16.7885 36.6653C15.4226 36.6653 14.1811 37.1252 13.1961 37.862ZM16.7907 38.6649C18.742 38.6649 20.3296 40.1186 20.3296 41.9053C20.3296 43.6919 18.742 45.1446 16.7907 45.1446C14.8395 45.1446 13.2518 43.6919 13.2518 41.9053C13.2518 40.1186 14.8395 38.6649 16.7907 38.6649ZM28.8182 35.8814C30.004 35.8814 30.9692 36.7652 30.9692 37.851C30.9692 38.9368 30.004 39.8207 28.8182 39.8207C27.6323 39.8207 26.6671 38.9368 26.6671 37.851C26.6671 36.7652 27.6313 35.8814 28.8182 35.8814ZM36.3677 30.2025C35.528 30.9703 34.1631 30.9703 33.3245 30.2025C32.4859 29.4336 32.4859 28.1849 33.3245 27.417C33.7438 27.0331 34.2952 26.8411 34.8455 26.8411C35.397 26.8411 35.9473 27.0331 36.3677 27.417C37.2052 28.1849 37.2052 29.4336 36.3677 30.2025ZM46.0912 28.2889C44.9053 28.2889 43.9401 27.405 43.9401 26.3192C43.9401 25.2324 44.9053 24.3486 46.0912 24.3486C47.277 24.3486 48.2422 25.2324 48.2422 26.3192C48.2422 27.405 47.277 28.2889 46.0912 28.2889ZM57.4875 33.2319C56.6478 34.0008 55.284 33.9988 54.4443 33.2319C53.6057 32.4631 53.6057 31.2133 54.4443 30.4454C54.8636 30.0615 55.415 29.8706 55.9653 29.8706C56.5168 29.8706 57.0682 30.0615 57.4875 30.4454C58.3261 31.2133 58.3261 32.4631 57.4875 33.2319ZM58.6853 44.1048C57.4995 44.1048 56.5342 43.221 56.5342 42.1342C56.5342 41.0484 57.4995 40.1646 58.6853 40.1646C59.8711 40.1646 60.8364 41.0484 60.8364 42.1342C60.8375 43.221 59.8722 44.1048 58.6853 44.1048ZM51.1358 49.7838C51.9755 49.0159 53.3393 49.0159 54.179 49.7838C55.0176 50.5526 55.0176 51.8024 54.179 52.5702C53.3393 53.3381 51.9755 53.3381 51.1358 52.5702C50.2972 51.8014 50.2972 50.5516 51.1358 49.7838ZM41.4123 51.6974C42.5981 51.6974 43.5634 52.5812 43.5634 53.668C43.5634 54.7538 42.5981 55.6376 41.4123 55.6376C40.2265 55.6376 39.2612 54.7538 39.2612 53.668C39.2612 52.5812 40.2265 51.6974 41.4123 51.6974ZM30.016 46.7543C30.8557 45.9865 32.2206 45.9865 33.0592 46.7543C33.8978 47.5232 33.8978 48.772 33.0592 49.5398C32.2195 50.3087 30.8546 50.3067 30.016 49.5398C29.1785 48.772 29.1785 47.5232 30.016 46.7543ZM29.505 11.0201C29.517 11.0501 29.5235 11.0801 29.5377 11.1091L30.4986 13.2397C27.1377 13.8896 23.8838 15.6753 20.5917 18.6897C17.2985 21.7051 15.2904 24.7655 14.5883 27.8049L12.1774 26.8871C12.1774 26.8861 12.1774 26.8861 12.1774 26.8861C12.1741 26.8851 12.1708 26.8851 12.1687 26.8831C12.0245 26.8101 11.9394 26.6882 11.9568 26.5502C12.375 23.3268 14.5294 19.8525 18.1895 16.5011C21.8474 13.1527 25.5282 11.2451 29.1315 10.8312C29.1479 10.8292 29.1632 10.8282 29.1785 10.8282C29.3183 10.8292 29.4384 10.9052 29.505 11.0201ZM56.0505 10.2853C56.0374 10.3133 56.0189 10.3383 56.0068 10.3673L55.0416 12.4949C52.1633 10.7782 48.4846 9.93436 43.8265 9.93436C39.1706 9.93436 35.3871 10.7992 32.5427 12.4939L31.5469 10.2833V10.2843C31.5458 10.2823 31.5447 10.2803 31.5436 10.2783C31.4966 10.1323 31.5305 9.98935 31.6517 9.90236C34.4372 7.89375 38.6443 6.83295 43.8178 6.83295C48.988 6.83295 53.0652 7.86775 55.9337 9.90836C56.0603 9.99734 56.0997 10.1463 56.0505 10.2853ZM75.5991 26.6062C75.6187 26.7521 75.5314 26.8841 75.3883 26.9511C75.3577 26.9621 75.3272 26.9671 75.2977 26.9791L72.9708 27.8589C72.2611 24.7805 70.312 21.8011 67.0188 18.7857C63.7267 15.7712 60.3843 13.9326 57.0638 13.2897L58.0662 11.0821C58.0673 11.0801 58.0673 11.0771 58.0695 11.0741C58.1503 10.9402 58.2835 10.8602 58.4342 10.8802C61.9545 11.2631 65.75 13.2357 69.409 16.5861C73.0636 19.9344 75.147 23.3058 75.5991 26.6062ZM76.6091 51.1455C76.5108 51.2625 76.3481 51.2985 76.1974 51.2555C76.1669 51.2435 76.1396 51.2265 76.109 51.2145L73.7832 50.3297C75.658 47.6952 76.5796 44.3268 76.5796 40.0606C76.5796 35.7974 75.6362 32.3331 73.7854 29.7286L76.1985 28.8168C76.2084 28.8128 76.2171 28.8068 76.228 28.8028C76.2608 28.7958 76.2946 28.7828 76.3263 28.7828C76.4409 28.7828 76.5447 28.8288 76.6145 28.9107C78.8082 31.4613 79.9678 35.3135 79.9678 40.0516C79.9678 44.7897 78.8377 48.522 76.6091 51.1455ZM57.9963 68.9621C57.9843 68.9341 57.9777 68.9051 57.9646 68.8771L57.0038 66.7465C60.3647 66.0966 63.6186 64.311 66.9118 61.2966C70.205 58.2811 72.213 55.2197 72.9151 52.1803L75.3261 53.0981H75.325C75.3283 53.0991 75.3315 53.0991 75.3348 53.1011C75.479 53.1741 75.5652 53.2961 75.5466 53.4351C75.1284 56.6594 72.9741 60.1328 69.314 63.4841C65.6572 66.8325 61.9763 68.7401 58.3719 69.1541C58.2103 69.1771 58.0695 69.0931 57.9963 68.9621ZM31.4541 69.687C31.465 69.663 31.4857 69.645 31.4966 69.62L32.463 67.4904C35.3413 69.2071 39.0199 70.0519 43.678 70.0519C48.335 70.0519 52.1185 69.1881 54.9619 67.4924L55.9577 69.703C55.9588 69.705 55.961 69.706 55.961 69.709C56.0068 69.8549 55.9741 69.9969 55.854 70.0839C53.0696 72.0925 48.8624 73.1533 43.6868 73.1533C38.5133 73.1533 34.4372 72.1185 31.572 70.0789C31.4399 69.9859 31.3973 69.8299 31.4541 69.687ZM11.9044 53.3791C11.8848 53.2331 11.9721 53.0991 12.1173 53.0331C12.1468 53.0231 12.1774 53.0191 12.2069 53.0071L14.5337 52.1273C15.2435 55.2047 17.1926 58.1842 20.4858 61.1996C23.779 64.215 27.1224 66.0537 30.4408 66.6965L29.4384 68.9041C29.4373 68.9071 29.4362 68.9101 29.4351 68.9131C29.3543 69.0451 29.22 69.1281 29.0715 69.1071C25.5512 68.7241 21.7568 66.7515 18.0967 63.4002C14.4398 60.0508 12.3576 56.6794 11.9044 53.3791Z" fill="#13131A"/>
<path d="M85.6117 0.293194C86.0387 -0.0977314 86.7287 -0.0977314 87.1557 0.293194C87.5826 0.68412 87.5826 1.316 87.1557 1.70692L76.6842 11.2951C76.4713 11.4901 76.1918 11.588 75.9123 11.588C75.6327 11.588 75.3532 11.4901 75.1403 11.2951C74.7133 10.9042 74.7133 10.2723 75.1403 9.88137L85.6117 0.293194Z" fill="#13131A"/>
<path d="M72.7021 7.88114C72.5634 8.31906 72.1278 8.603 71.6539 8.603C71.5534 8.603 71.4508 8.59 71.3492 8.56401C70.7705 8.41004 70.4364 7.85514 70.6046 7.32524L72.6945 0.722504C72.8626 0.191605 73.4708 -0.110337 74.0473 0.0396345C74.6261 0.193605 74.9602 0.748499 74.792 1.2784L72.7021 7.88114Z" fill="#13131A"/>
<path d="M10.7917 68.6532C11.2186 68.2623 11.9087 68.2623 12.3356 68.6532C12.7626 69.0441 12.7626 69.676 12.3356 70.0669L1.86417 79.6551C1.65125 79.85 1.37172 79.948 1.09219 79.948C0.812657 79.948 0.533127 79.85 0.320204 79.6551C-0.106735 79.2642 -0.106735 78.6323 0.320204 78.2414L10.7917 68.6532Z" fill="#13131A"/>
<path d="M14.7738 72.0675C14.942 71.5376 15.5502 71.2337 16.1267 71.3846C16.7054 71.5386 17.0395 72.0935 16.8714 72.6234L14.7815 79.2262C14.6428 79.6641 14.2071 79.948 13.7332 79.948C13.6328 79.948 13.5301 79.935 13.4286 79.909C12.8499 79.7551 12.5157 79.2002 12.6839 78.6703L14.7738 72.0675Z" fill="#13131A"/>
<path d="M0.342665 0.34396C0.769603 -0.0469654 1.45969 -0.0469654 1.88663 0.34396L12.3581 9.93213C12.785 10.3231 12.785 10.9549 12.3581 11.3459C12.1452 11.5408 11.8656 11.6388 11.5861 11.6388C11.3066 11.6388 11.027 11.5408 10.8141 11.3459L0.342665 1.75769C-0.0842737 1.36776 -0.0842737 0.734886 0.342665 0.34396Z" fill="#13131A"/>
<path d="M16.1509 8.61436C16.0493 8.64035 15.9467 8.65335 15.8462 8.65335C15.3723 8.65335 14.9367 8.36941 14.798 7.93149L12.7081 1.32875C12.5399 0.798846 12.874 0.243952 13.4528 0.0899809C14.0315 -0.057991 14.6375 0.241952 14.8056 0.772851L16.8956 7.37559C17.0637 7.90549 16.7296 8.46039 16.1509 8.61436Z" fill="#13131A"/>
<path d="M87.1799 79.707C86.9669 79.902 86.6874 80 86.4079 80C86.1284 80 85.8488 79.902 85.6359 79.707L75.1644 70.1189C74.7375 69.7279 74.7375 69.096 75.1644 68.7051C75.5914 68.3142 76.2815 68.3142 76.7084 68.7051L87.1799 78.2933C87.6068 78.6842 87.6068 79.3171 87.1799 79.707Z" fill="#13131A"/>
<path d="M74.0703 79.961C73.9688 79.987 73.8661 80 73.7657 80C73.2918 80 72.8561 79.7161 72.7174 79.2781L70.6275 72.6754C70.4593 72.1455 70.7935 71.5906 71.3722 71.4366C71.9509 71.2876 72.5569 71.5886 72.7251 72.1195L74.815 78.7222C74.9831 79.2521 74.649 79.807 74.0703 79.961Z" fill="#13131A"/>
<path d="M109.925 30.1324V38.0021H118.99V30.1324H123.915V50.6397H118.99V41.7934H109.925V50.6397H105V30.1324H109.925ZM144.994 30.1324V33.9237H133.168V38.3181H144.021V41.8221H133.168V46.8484H145.245V50.6397H128.243V30.1324H144.994ZM153.494 30.1324V46.8484H164.41V50.6397H148.57V30.1324H153.494ZM177.302 30.1324C179.686 30.1324 181.568 30.726 182.949 31.9131C184.329 33.1003 185.019 34.6991 185.019 36.7097C185.019 38.7393 184.329 40.343 182.949 41.5205C181.568 42.6981 179.697 43.2869 177.334 43.2869H172.095V50.6397H167.171V30.1324H177.302ZM176.016 39.7829C177.438 39.7829 178.5 39.5435 179.2 39.0648C179.901 38.5861 180.251 37.8011 180.251 36.7097C180.251 35.6565 179.911 34.8811 179.231 34.3832C178.552 33.8853 177.491 33.6364 176.048 33.6364H172.095V39.7829H176.016ZM188.689 46.2165V50.6397H183.764V46.2165H188.689ZM208.513 30.1324V33.9237H197.691V38.6627H207.07V42.1668H197.691V50.6397H192.767V30.1324H208.513ZM221.405 29.6441C224.709 29.6441 227.37 30.6494 229.388 32.6599C231.406 34.6704 232.415 37.2746 232.415 40.4722C232.415 43.5934 231.401 46.1496 229.373 48.1409C227.344 50.1322 224.689 51.128 221.405 51.128C218.101 51.128 215.44 50.1323 213.422 48.1409C211.404 46.1495 210.395 43.5934 210.395 40.4722C210.395 37.2936 211.409 34.6943 213.438 32.6743C215.466 30.6543 218.122 29.6441 221.405 29.6441ZM215.32 40.4722C215.32 42.5402 215.853 44.2011 216.92 45.4554C217.986 46.7097 219.481 47.3367 221.405 47.3367C223.287 47.3367 224.772 46.7192 225.859 45.4841C226.947 44.2491 227.491 42.5784 227.491 40.4722C227.491 38.2703 226.952 36.5468 225.875 35.3023C224.798 34.0578 223.298 33.4354 221.374 33.4354C219.492 33.4354 218.012 34.0577 216.935 35.3023C215.859 36.5469 215.32 38.2701 215.32 40.4722ZM245.809 29.6441C249.113 29.6441 251.774 30.6494 253.792 32.6599C255.81 34.6704 256.819 37.2746 256.819 40.4722C256.819 43.5934 255.805 46.1496 253.777 48.1409C251.748 50.1322 249.093 51.128 245.809 51.128C242.505 51.128 239.844 50.1323 237.826 48.1409C235.808 46.1495 234.799 43.5934 234.799 40.4722C234.799 37.2936 235.813 34.6943 237.842 32.6743C239.87 30.6543 242.526 29.6441 245.809 29.6441ZM239.724 40.4722C239.724 42.5402 240.257 44.2011 241.324 45.4554C242.39 46.7097 243.885 47.3367 245.809 47.3367C247.691 47.3367 249.176 46.7192 250.263 45.4841C251.351 44.2491 251.895 42.5784 251.895 40.4722C251.895 38.2703 251.356 36.5468 250.279 35.3023C249.202 34.0578 247.702 33.4354 245.778 33.4354C243.896 33.4354 242.416 34.0577 241.339 35.3023C240.263 36.5469 239.724 38.2701 239.724 40.4722ZM269.774 30.1324C272.953 30.1324 275.452 31.0323 277.271 32.8322C279.09 34.6321 280 37.1118 280 40.2712C280 43.5454 279.085 46.0922 277.255 47.9111C275.426 49.7301 272.974 50.6397 269.9 50.6397H260.176V30.1324H269.774ZM269.46 46.8484C271.238 46.8484 272.618 46.3123 273.601 45.24C274.584 44.1677 275.075 42.6454 275.075 40.6733C275.075 38.4139 274.547 36.724 273.491 35.6039C272.435 34.4837 270.809 33.9237 268.614 33.9237H265.1V46.8484H269.46Z" fill="#6C63FF"/>
</svg>
