<svg width="500" height="500" viewBox="0 0 500 500" fill="none" xmlns="http://www.w3.org/2000/svg">
<g clip-path="url(#clip0)">
<path d="M242.325 500C376.157 500 484.649 465.131 484.649 422.119C484.649 379.106 376.157 344.238 242.325 344.238C108.492 344.238 0 379.106 0 422.119C0 465.131 108.492 500 242.325 500Z" fill="#F5F5F5"/>
<path d="M373.712 250.108C373.712 250.108 343.713 273.972 351.637 319.508C359.561 365.045 309.501 428.55 309.501 428.55C309.501 428.55 309.932 428.55 310.735 428.55C364.922 428.25 401.369 365.631 379.791 309.722C371.782 288.941 366.195 265.281 373.712 250.108Z" fill="#6C63FF"/>
<path d="M373.712 250.108C373.712 250.108 353.901 282.631 363.937 314.224C373.972 345.817 349.701 424.373 309.518 428.55" stroke="#535461" stroke-miterlimit="10"/>
<path d="M401.561 375.43C401.561 375.43 373.14 364.561 365.986 393.506C358.831 422.45 304.679 416.179 304.679 416.179C304.679 416.179 304.984 416.516 305.567 417.121C344.788 458.277 388.842 454.584 389.08 410.022C389.171 393.461 391.831 377.34 401.561 375.43Z" fill="#6C63FF"/>
<path opacity="0.2" d="M401.561 375.43C401.561 375.43 373.14 364.561 365.986 393.506C358.831 422.45 304.679 416.179 304.679 416.179C304.679 416.179 304.984 416.516 305.567 417.121C344.788 458.277 388.842 454.584 389.08 410.022C389.171 393.461 391.831 377.34 401.561 375.43Z" fill="#F5F5F5"/>
<path d="M401.561 375.43C401.561 375.43 378.025 376.659 376.35 400.21C374.674 423.762 334.905 444.703 304.679 416.179" stroke="#535461" stroke-miterlimit="10"/>
<path d="M351.665 309.353C353.363 299.803 352.973 285.891 339.082 279.116C346.509 265.688 343.016 256.195 336.303 252.827C336.258 249.325 335.443 242.22 329.975 238.406C330.7 231.797 331.877 205.527 305.488 202.585C302.392 196.575 292.702 180.301 276.915 175.793V152.235C273.111 161.219 249.179 166.35 249.179 166.35C221.749 170.661 215.597 188.094 214.21 195.709C210.678 195.83 207.57 196.345 205.821 197.581C200.07 201.624 159.022 213.689 162.237 245.677C161.671 245.893 161.139 246.11 160.589 246.313C160.589 246.313 138.135 266.465 144.175 282.491L141.91 282.675C141.91 282.675 128.892 291.729 132.893 309.57C132.362 310.219 131.981 311.005 131.784 311.859C131.586 312.713 131.579 313.608 131.761 314.466L162.718 430.53C162.92 431.339 163.358 432.048 163.963 432.542C165.361 433.637 168.265 435.821 172.499 438.469L172.533 438.654L172.72 438.609C177.541 441.602 182.515 444.27 187.618 446.6V446.734L187.804 446.696C191.393 448.332 195.327 449.936 199.578 451.413V451.515H199.765C203.699 452.872 207.899 454.119 212.342 455.176V455.24H212.529C216.7 456.227 221.093 457.042 225.678 457.628H225.853C231.491 458.338 237.162 458.662 242.834 458.595H243.213C248.525 458.511 253.828 458.086 259.096 457.322H259.283V457.284C263.543 456.664 267.9 455.796 272.353 454.68L272.307 455.176L272.687 455.221L272.743 454.584C277.185 453.447 281.713 452.027 286.328 450.325H286.515V450.223C290.349 448.792 294.234 447.15 298.17 445.295L298.356 445.333V445.193C302.919 443.024 307.541 440.539 312.224 437.737L312.411 437.782L312.445 437.603C315.086 436.012 317.749 434.314 320.432 432.51C321.142 432.028 321.667 431.265 321.903 430.371L352.758 314.217C352.938 313.361 352.929 312.469 352.732 311.617C352.534 310.766 352.155 309.982 351.626 309.334L351.665 309.353Z" fill="url(#paint0_linear)"/>
<path d="M304.232 208.494C304.232 208.494 290.307 176.34 263.919 179.638C237.53 182.936 265.753 213.441 265.753 213.441C265.753 213.441 298.005 216.325 304.232 208.494Z" fill="#6C63FF"/>
<path opacity="0.1" d="M304.232 208.494C304.232 208.494 290.307 176.34 263.919 179.638C237.53 182.936 265.753 213.441 265.753 213.441C265.753 213.441 298.005 216.325 304.232 208.494Z" fill="black"/>
<path d="M214.815 203.133C214.815 203.133 214.815 202.712 214.883 201.974C215.353 196.823 219.106 176.079 248.896 171.412C248.896 171.412 271.985 166.465 275.647 157.806V184.191C275.647 184.191 270.881 202.744 247.062 208.927C223.244 215.109 214.815 203.133 214.815 203.133Z" fill="#6C63FF"/>
<path d="M145.55 283.516C145.55 283.516 128.303 295.473 140.416 318.967C152.529 342.461 344.913 318.967 344.913 318.967C344.913 318.967 357.365 290.112 335.018 279.804C312.671 269.496 145.55 283.516 145.55 283.516Z" fill="#784F69"/>
<path opacity="0.1" d="M333.066 255.565C333.02 252.19 332.233 245.378 326.964 241.672C327.66 235.305 328.803 209.983 303.366 207.15C300.377 201.356 291.049 185.642 275.828 181.332V158.608C272.166 167.267 249.077 172.214 249.077 172.214C222.644 176.372 216.712 193.168 215.381 200.503C211.985 200.618 208.985 201.14 207.299 202.305C201.757 206.201 162.197 217.828 165.271 248.657C164.738 248.86 164.212 249.077 163.686 249.293C163.686 249.293 132.497 277.308 155.11 292.786C155.11 292.786 165.52 315.255 195.938 297.937L196.034 297.867C207.491 301.566 238.187 309.328 256.408 293.811L257.715 292.697C264.96 297.555 282.128 306.437 296.72 293.811L296.845 293.703C302.505 299.694 314.024 307.322 327.869 291.748C344.448 273.119 341.228 259.678 333.066 255.565Z" fill="black"/>
<path d="M292.871 288.049C292.871 288.049 307.9 313.192 327.688 290.933C347.477 268.674 339.048 253.833 327.688 253.419C316.328 253.005 292.871 288.049 292.871 288.049Z" fill="#6C63FF"/>
<path opacity="0.15" d="M292.871 288.049C292.871 288.049 307.9 313.192 327.688 290.933C347.477 268.674 339.048 253.833 327.688 253.419C316.328 253.005 292.871 288.049 292.871 288.049Z" fill="black"/>
<path d="M332.822 256.724C332.822 256.724 336.484 221.705 289.238 248.478C241.991 275.251 254.053 289.291 254.053 289.291C254.053 289.291 277.509 309.493 296.562 293.003C315.615 276.512 327.32 271.565 332.822 256.724Z" fill="#6C63FF"/>
<path opacity="0.1" d="M332.822 256.724C332.822 256.724 336.484 221.705 289.238 248.478C241.991 275.251 254.053 289.291 254.053 289.291C254.053 289.291 277.509 309.493 296.562 293.003C315.615 276.512 327.32 271.565 332.822 256.724Z" fill="black"/>
<path d="M296.539 246.002C296.539 246.002 278.579 231.994 251.098 246.002C223.617 260.009 191.359 295.473 191.359 295.473C191.359 295.473 233.506 312.397 256.226 292.996C278.947 273.596 295.441 259.194 296.539 246.002Z" fill="#6C63FF"/>
<path opacity="0.07" d="M296.539 246.002C296.539 246.002 278.579 231.994 251.098 246.002C223.617 260.009 191.359 295.473 191.359 295.473C191.359 295.473 233.506 312.397 256.226 292.996C278.947 273.596 295.441 259.194 296.539 246.002Z" fill="black"/>
<path d="M259.526 243.945C259.526 243.945 222.876 238.176 206.019 249.713C189.163 261.25 154.906 291.971 154.906 291.971C154.906 291.971 165.316 314.44 195.734 297.122C195.757 297.116 258.791 253.012 259.526 243.945Z" fill="#6C63FF"/>
<path opacity="0.03" d="M259.526 243.945C259.526 243.945 222.876 238.176 206.019 249.713C189.163 261.25 154.906 291.971 154.906 291.971C154.906 291.971 165.316 314.44 195.734 297.122C195.757 297.116 258.791 253.012 259.526 243.945Z" fill="black"/>
<path d="M163.504 248.478C163.504 248.478 130.89 277.766 156.542 293.003C156.542 293.003 210.779 253.018 211.883 248.478C211.883 248.478 186.604 238.584 163.504 248.478Z" fill="#6C63FF"/>
<path d="M234.604 201.484C234.604 201.484 212.981 197.364 207.117 201.484C201.253 205.603 157.278 218.388 166.069 253.425L179.246 248.09C179.246 248.09 204.553 212.199 234.604 201.484Z" fill="#6C63FF"/>
<path opacity="0.1" d="M234.604 201.484C234.604 201.484 212.981 197.364 207.117 201.484C201.253 205.603 157.278 218.388 166.069 253.425L179.246 248.09C179.246 248.09 204.553 212.199 234.604 201.484Z" fill="black"/>
<path d="M270.519 206.845C270.519 206.845 255.128 190.768 221.042 205.609C186.955 220.451 175.601 247.243 175.601 247.243L226.725 251.573C226.725 251.573 255.491 205.195 270.519 206.845Z" fill="#6C63FF"/>
<path opacity="0.07" d="M270.519 206.845C270.519 206.845 255.128 190.768 221.042 205.609C186.955 220.451 175.601 247.243 175.601 247.243L226.725 251.573C226.725 251.573 255.491 205.195 270.519 206.845Z" fill="black"/>
<path d="M294.337 208.901C294.337 208.901 269.783 199.834 250.753 212.199C231.723 224.564 224.715 248.886 224.715 248.886L255.134 247.237C255.134 247.237 278.947 205.195 294.337 208.901Z" fill="#6C63FF"/>
<path opacity="0.03" d="M294.337 208.901C294.337 208.901 269.783 199.834 250.753 212.199C231.723 224.564 224.715 248.886 224.715 248.886L255.134 247.237C255.134 247.237 278.947 205.195 294.337 208.901Z" fill="black"/>
<path d="M326.59 242.296C326.59 242.296 335.018 194.066 279.315 208.907C279.315 208.907 247.657 240.239 256.526 248.892C265.396 257.545 326.59 242.296 326.59 242.296Z" fill="#6C63FF"/>
<path opacity="0.1" d="M135.741 313.332L165.57 425.181C165.778 425.955 166.21 426.628 166.799 427.092C175.125 433.643 239.189 480.129 317.641 427.092C318.325 426.626 318.829 425.89 319.056 425.029L348.79 313.097C348.952 312.486 348.967 311.838 348.834 311.219C348.701 310.6 348.425 310.031 348.033 309.57C347.642 309.11 347.149 308.774 346.605 308.597C346.061 308.421 345.485 308.409 344.935 308.564L332.018 312.193C331.574 312.319 331.111 312.336 330.66 312.244L318.518 309.697C317.804 309.548 317.065 309.676 316.424 310.06L302.013 318.706C301.318 319.121 300.513 319.234 299.749 319.025L284.245 314.689C283.659 314.523 283.042 314.548 282.468 314.759L264.462 321.387C264.059 321.535 263.634 321.593 263.212 321.556C262.789 321.518 262.377 321.387 262 321.17L250.074 314.307C249.319 313.871 248.442 313.788 247.634 314.077L232.255 319.598C231.867 319.736 231.46 319.79 231.055 319.757L216.247 318.592C216.025 318.575 215.805 318.532 215.591 318.464L203.84 314.689C203.344 314.53 202.822 314.508 202.317 314.625L186.038 318.343C185.428 318.484 184.795 318.422 184.216 318.165L168.367 311.104C167.811 310.856 167.206 310.788 166.618 310.907L154.001 313.453C153.491 313.557 152.967 313.519 152.472 313.345L139.759 308.85C139.204 308.658 138.613 308.639 138.049 308.795C137.485 308.952 136.969 309.277 136.556 309.737C136.144 310.197 135.85 310.775 135.706 311.408C135.563 312.041 135.575 312.706 135.741 313.332Z" fill="black"/>
<path d="M135.741 314.154L165.57 426.003C165.778 426.777 166.21 427.449 166.799 427.913C175.125 434.465 239.189 480.95 317.641 427.913C318.325 427.447 318.829 426.712 319.056 425.85L348.79 313.918C348.952 313.308 348.967 312.66 348.834 312.04C348.701 311.421 348.425 310.852 348.033 310.392C347.642 309.931 347.149 309.596 346.605 309.419C346.061 309.242 345.485 309.23 344.935 309.385L332.03 313.033C331.585 313.159 331.122 313.177 330.671 313.084L318.53 310.537C317.815 310.388 317.077 310.516 316.435 310.9L302.024 319.547C301.33 319.961 300.524 320.074 299.76 319.865L284.262 315.51C283.676 315.345 283.059 315.369 282.485 315.58L264.479 322.208C264.076 322.357 263.651 322.414 263.229 322.377C262.806 322.34 262.394 322.209 262.017 321.992L250.091 315.115C249.336 314.679 248.459 314.597 247.651 314.886L232.272 320.406C231.884 320.544 231.477 320.598 231.072 320.565L216.247 319.4C216.025 319.384 215.805 319.341 215.591 319.273L203.84 315.497C203.344 315.339 202.822 315.317 202.317 315.434L186.038 319.165C185.428 319.305 184.795 319.243 184.216 318.986L168.367 311.925C167.811 311.678 167.206 311.609 166.618 311.728L154.001 314.275C153.491 314.378 152.967 314.341 152.472 314.167L139.759 309.671C139.204 309.479 138.613 309.46 138.049 309.617C137.485 309.773 136.969 310.098 136.556 310.559C136.144 311.019 135.85 311.596 135.706 312.229C135.563 312.862 135.575 313.528 135.741 314.154Z" fill="#4D4981"/>
<path opacity="0.5" d="M168.463 274.277L165.344 273.055L163.595 269.903L171.372 258.952L174.491 260.174L176.24 263.326L168.463 274.277Z" fill="white"/>
<path opacity="0.5" d="M316.158 292.831L313.033 291.608L311.29 288.457L319.062 277.505L322.181 278.722L323.93 281.873L316.158 292.831Z" fill="white"/>
<path opacity="0.5" d="M251.29 233.051L248.172 231.835L246.423 228.683L254.194 217.726L257.319 218.948L259.062 222.1L251.29 233.051Z" fill="white"/>
<path opacity="0.5" d="M268.798 273.329L265.781 274.831L262.589 273.876L261.609 259.901L264.626 258.398L267.819 259.353L268.798 273.329Z" fill="white"/>
<path opacity="0.5" d="M217.968 239.023L215.885 241.908L212.653 242.678L206.155 230.721L208.244 227.837L211.476 227.066L217.968 239.023Z" fill="white"/>
<path opacity="0.5" d="M214.306 272.826L212.217 275.71L208.991 276.48L202.493 264.523L204.576 261.639L207.808 260.868L214.306 272.826Z" fill="white"/>
<path opacity="0.5" d="M303.937 276.117L301.543 278.677L298.249 278.976L293.166 266.179L295.566 263.619L298.854 263.32L303.937 276.117Z" fill="white"/>
<path opacity="0.5" d="M287.607 232.262L288.417 228.658L291.055 226.429L301.436 234.184L300.626 237.788L297.988 240.023L287.607 232.262Z" fill="white"/>
<path opacity="0.5" d="M177.259 237.591L174.14 236.368L172.391 233.217L180.168 222.265L183.287 223.481L185.036 226.633L177.259 237.591Z" fill="#FD6F8D"/>
<path opacity="0.5" d="M216.531 217L215.766 213.39L217.193 210.034L229.583 211.518L230.347 215.134L228.921 218.49L216.531 217Z" fill="#FD6F8D"/>
<path opacity="0.5" d="M276.575 196.447L277.192 192.799L279.711 190.392L290.477 197.447L289.86 201.095L287.341 203.502L276.575 196.447Z" fill="#FD6F8D"/>
<path opacity="0.5" d="M252.57 178.04L255.791 177.213L258.757 178.849L257.313 192.773L254.092 193.595L251.126 191.958L252.57 178.04Z" fill="#FD6F8D"/>
<path opacity="0.5" d="M230.46 287.909L229.696 284.293L231.117 280.937L243.508 282.421L244.272 286.037L242.851 289.393L230.46 287.909Z" fill="#FD6F8D"/>
<path opacity="0.5" d="M184.646 290.551L182.693 287.553L182.84 283.847L194.766 279.778L196.725 282.777L196.572 286.489L184.646 290.551Z" fill="#FD6F8D"/>
<path opacity="0.5" d="M312.903 265.72L310.192 263.6L309.27 260.028L319.385 251.846L322.096 253.967L323.018 257.532L312.903 265.72Z" fill="#FD6F8D"/>
<path opacity="0.5" d="M227.149 268.604L224.438 266.484L223.51 262.919L233.625 254.731L236.336 256.851L237.264 260.416L227.149 268.604Z" fill="#FD6F8D"/>
<path opacity="0.1" d="M166.64 310.907L154.023 313.453C153.514 313.557 152.989 313.519 152.495 313.345L152.286 313.269L175.25 432.968L152.286 313.269L139.782 308.85C139.228 308.656 138.638 308.634 138.074 308.788C137.509 308.941 136.993 309.263 136.579 309.721C136.165 310.178 135.869 310.753 135.722 311.384C135.575 312.016 135.584 312.68 135.746 313.307L165.576 425.156C165.783 425.93 166.216 426.603 166.804 427.066C169.414 429.123 177.508 435.101 189.802 440.704L167.563 310.818C167.253 310.797 166.942 310.827 166.64 310.907Z" fill="black"/>
<path opacity="0.1" d="M344.946 308.576L332.029 312.206C331.585 312.331 331.122 312.349 330.671 312.256L318.53 309.71C318.155 309.634 317.772 309.634 317.398 309.71L296.171 439.405L317.386 309.716C317.054 309.782 316.733 309.907 316.435 310.085L302.024 318.732C301.367 319.125 300.608 319.249 299.879 319.082L284.754 444.231C293.377 441.011 301.738 436.964 309.745 432.134L332.89 311.957L309.739 432.096C312.358 430.525 314.999 428.845 317.664 427.053C318.347 426.588 318.852 425.852 319.079 424.99L348.812 313.059C348.965 312.45 348.973 311.807 348.835 311.194C348.697 310.581 348.418 310.019 348.027 309.565C347.635 309.111 347.145 308.781 346.604 308.608C346.064 308.434 345.492 308.423 344.946 308.576Z" fill="black"/>
<path d="M299.737 319.044L284.245 314.689C283.947 314.606 283.64 314.571 283.334 314.587L271.509 448.383C275.849 447.275 280.271 445.891 284.777 444.232L299.902 319.082L299.737 319.044Z" fill="#4D4981"/>
<g opacity="0.5">
<path opacity="0.5" d="M152.467 314.038L152.107 314.126L175.071 433.801L175.431 433.713L152.467 314.038Z" fill="white"/>
<path opacity="0.5" d="M185.327 319.328L184.963 319.386L201.186 446.178L201.55 446.119L185.327 319.328Z" fill="white"/>
<path opacity="0.5" d="M167.699 311.532L167.337 311.61L189.596 441.629L189.958 441.551L167.699 311.532Z" fill="white"/>
<path opacity="0.5" d="M203.269 315.241L202.903 315.277L213.468 449.765L213.835 449.729L203.269 315.241Z" fill="white"/>
<path opacity="0.5" d="M223.223 319.958L222.855 319.97L226.3 452.098L226.668 452.086L223.223 319.958Z" fill="white"/>
<path opacity="0.5" d="M242.41 316.838L242.042 316.841L242.824 453.034L243.192 453.031L242.41 316.838Z" fill="white"/>
<path opacity="0.5" d="M263.036 322.681L258.325 451.79L258.693 451.807L263.403 322.698L263.036 322.681Z" fill="white"/>
<path opacity="0.5" d="M283.184 315.228L271.209 449.713L271.575 449.755L283.551 315.269L283.184 315.228Z" fill="white"/>
<path opacity="0.5" d="M297.393 317.12L282.662 443.313L283.026 443.367L297.758 317.174L297.393 317.12Z" fill="white"/>
<path opacity="0.5" d="M317.246 310.235L295.945 440.146L296.306 440.221L317.607 310.31L317.246 310.235Z" fill="white"/>
<path opacity="0.5" d="M332.683 312.729L309.6 432.922L309.96 433.01L333.043 312.816L332.683 312.729Z" fill="white"/>
</g>
<path d="M28.0697 407.328C31.4659 406.055 36.5602 404.603 40.5734 405.119C44.3884 403.553 53.3657 399.465 59.4959 393.41C59.3172 387.413 59.4514 381.409 59.8978 375.43C63.0336 335.318 55.9808 308.901 55.9808 308.901C55.9808 308.901 50.445 288.737 51.0507 272.004C50.6941 272.762 50.4846 273.214 50.4846 273.214C49.9978 258.78 45.6281 243.843 42.3564 234.541C42.2307 234.5 42.1077 234.449 41.9885 234.388L38.2583 224.621C37.9669 224.053 37.7351 223.448 37.5677 222.819L37.0017 221.272L37.1772 221.189C37.1206 220.935 37.0583 220.667 37.0017 220.393C34.664 209.27 32.881 182.892 32.881 182.892C26.6037 155.132 41.4904 137.941 41.4904 137.941L66.7524 113.485C66.627 113.803 66.5431 114.14 66.5034 114.485L66.7128 114.281C67.0694 113.135 67.46 111.734 67.8449 110.181C66.9436 109.464 66.099 108.661 65.3204 107.78C62.4488 104.729 60.474 100.764 59.66 96.4154C59.0487 93.0345 59.1676 89.5518 59.2921 86.1072L59.711 74.3156C59.7296 72.0067 59.938 69.7048 60.3336 67.4392C62.2411 58.0542 70.7656 51.5217 79.3184 51.1079C82.041 50.9805 84.7579 51.3689 87.4692 51.5981C89.6719 51.8013 91.8835 51.8544 94.0918 51.7573C94.3433 51.7732 94.5928 51.6997 94.805 51.5472C94.9993 51.3315 95.111 51.0391 95.1164 50.7322C95.1597 50.1851 95.1037 49.6338 94.952 49.1117C94.8002 48.5897 94.5557 48.1077 94.2333 47.6951C93.9026 47.3679 93.518 47.117 93.1013 46.9566L93.7126 47.1221C93.412 46.8573 93.073 46.6527 92.7107 46.5173C94.8956 47.0967 97.1314 47.7015 99.0107 49.0641C99.5485 49.4618 100.043 49.9298 100.482 50.4584C101.646 51.6071 102.402 53.1898 102.611 54.9153C103.59 53.8393 104.529 52.655 104.875 51.1779C105.005 50.584 105.005 49.9635 104.875 49.3697C105.022 49.5777 105.165 49.7899 105.305 50.0064C105.305 49.9427 105.305 49.879 105.265 49.8154C106.862 52.0489 107.987 54.6615 108.554 57.4557C108.777 57.1532 108.945 56.8037 109.047 56.4277C109.149 56.0517 109.183 55.6567 109.148 55.2655C109.273 55.6985 109.392 56.1378 109.499 56.5835C109.55 56.2943 109.563 55.9983 109.539 55.7048C110.519 59.078 110.962 62.6194 110.846 66.1658C110.846 69.7058 109.454 75.2133 106.08 76.4549C105.911 76.5185 105.729 76.5695 105.548 76.614C107.442 79.9228 108.577 83.7087 108.85 87.6321C109.123 91.5555 108.526 95.4938 107.113 99.0939C105.7 102.694 103.515 105.843 100.753 108.259C97.9914 110.676 94.7398 112.283 91.29 112.938C91.2371 113.362 91.1843 113.814 91.1315 114.294H90.9956C90.9051 115.249 90.8315 116.255 90.7749 117.305C91.6236 118.243 92.5526 119.083 93.5484 119.814C96.3581 121.701 99.4945 122.888 102.746 123.297C106.647 123.633 110.439 124.901 113.869 127.015C117.899 129.562 122.36 133.248 123.746 137.737C126.078 145.231 138.893 156.838 147.52 158.283L150.576 158.086L150.797 158.01V158.073L151.544 158.022H151.59H151.788V158.073L152.563 158.022C152.563 158.022 152.642 158.424 152.744 159.137C157.074 157.468 166.261 152.821 178.216 140.621C191.54 127.028 209.523 129.702 216.457 131.415C216.693 131.473 216.907 131.612 217.072 131.811C217.236 132.01 217.343 132.261 217.377 132.53C217.411 132.799 217.372 133.073 217.264 133.317C217.157 133.56 216.986 133.76 216.774 133.892C213.978 135.623 209.631 138.138 207.593 138.418C207.593 138.418 211.793 143.308 207.332 145.919C206.798 146.215 206.201 146.337 205.608 146.273C205.016 146.209 204.45 145.961 203.976 145.556C201.831 143.792 195.865 147.791 187.227 149.873C187.227 149.873 162.842 178.257 150.746 182.65C150.463 183.258 150.151 183.849 149.812 184.42L149.065 184.35L149.025 184.42H148.923L148.833 185.311C148.833 185.311 130.012 184.197 123.927 176.512C123.492 176.076 123.093 175.596 122.733 175.08L129.276 267.707H129.214L129.276 268.585H124.465C124.046 279.988 124.478 291.41 125.756 302.731V363.091C125.756 363.091 126.005 368.407 116.195 376.143C105.882 384.195 95.9422 392.838 86.4164 402.037L85.2277 403.196C87.0334 421.66 90.8088 456.093 93.956 457.379L92.0145 457.761C95.3598 462.505 104.784 475.519 107.665 475.882C111.192 476.321 113.541 482.491 107.665 483.815C102.243 485.038 88.1485 486.629 72.7694 479.944C71.6577 479.458 70.7233 478.566 70.1157 477.412C69.5082 476.257 69.2626 474.907 69.4184 473.577L70.5505 463.848C70.3346 463.984 70.1608 464.19 70.0524 464.44C69.2713 467.083 70.0524 460.913 70.0524 460.913C66.8313 449.263 64.3012 437.386 62.4789 425.36L50.8639 436.68C50.8639 436.68 50.6261 436.356 50.2242 435.77C47.3941 443.054 42.2998 457.933 43.4318 468.846C44.9998 483.828 30.1131 470.61 31.681 461.798C32.9489 454.667 27.2942 424.462 25.0867 413.192C24.8468 411.973 25.0194 410.696 25.5709 409.612C26.1225 408.528 27.0133 407.714 28.0697 407.328Z" fill="url(#paint1_linear)"/>
<path d="M149.693 162.9C149.693 162.9 160.788 160.747 177.231 143.97C190.25 130.695 207.797 133.312 214.589 134.98C214.829 135.021 215.052 135.147 215.224 135.341C215.395 135.535 215.507 135.786 215.542 136.057C215.576 136.327 215.533 136.604 215.417 136.844C215.302 137.085 215.121 137.278 214.9 137.393C212.166 139.081 207.921 141.538 205.934 141.818C205.934 141.818 210.032 146.594 205.68 149.147C205.158 149.435 204.575 149.554 203.996 149.491C203.417 149.428 202.865 149.186 202.402 148.79C200.308 147.071 194.478 150.974 186.05 153.005C186.05 153.005 153.157 191.296 145.51 184.84L149.693 162.9Z" fill="#FEC3BE"/>
<path d="M93.0841 110.843C93.0841 110.843 90.0219 125.487 93.0841 135.795L79.3182 137.941L67.0806 131.065V122.023C67.0806 122.023 72.8201 108.258 71.2862 92.3405L93.0841 110.843Z" fill="#FEC3BE"/>
<path d="M54.0732 427.919C54.0732 427.919 44.128 449.86 45.662 464.485C47.1959 479.11 32.6432 466.204 34.1885 457.602C35.4281 450.643 29.9036 421.145 27.7527 410.143C27.516 408.953 27.6818 407.707 28.2176 406.648C28.7534 405.588 29.6209 404.791 30.6508 404.412C35.2526 402.712 42.945 400.592 46.8167 403.814C52.5449 408.538 54.0732 427.919 54.0732 427.919Z" fill="#8B416F"/>
<path d="M91.9409 452.006C91.9409 452.006 104.96 470.935 108.39 471.368C111.82 471.801 114.129 477.824 108.39 479.11C103.097 480.301 89.3315 481.86 74.3146 475.328C73.2277 474.853 72.3143 473.98 71.721 472.851C71.1276 471.722 70.8888 470.401 71.0429 469.101L73.1995 450.713L91.9409 452.006Z" fill="#8B416F"/>
<path d="M113.36 251.095L125.812 252.967C125.812 252.967 122.903 276.474 125.959 302.292V361.231C125.959 361.231 126.203 366.421 116.626 373.965C106.58 381.83 96.8994 390.269 87.622 399.249L52.9128 433.07C52.9128 433.07 39.1412 414.141 41.0544 402.954C41.0544 402.954 64.0014 394.779 67.0637 381.44C68.8184 373.8 77.7164 367.433 85.0013 363.39C94.3861 358.175 99.503 346.326 96.9332 334.917C96.5087 332.981 95.8517 331.12 94.9804 329.384C88.8616 317.337 80.0654 290.233 80.0654 290.233L96.8936 254.094L113.36 251.095Z" fill="#4D4981"/>
<path opacity="0.05" d="M113.36 251.095L125.812 252.967C125.812 252.967 122.903 276.474 125.959 302.292V361.231C125.959 361.231 126.203 366.421 116.626 373.965C106.58 381.83 96.8994 390.269 87.622 399.249L52.9128 433.07C52.9128 433.07 39.1412 414.141 41.0544 402.954C41.0544 402.954 64.0014 394.779 67.0637 381.44C68.8184 373.8 77.7164 367.433 85.0013 363.39C94.3861 358.175 99.503 346.326 96.9332 334.917C96.5087 332.981 95.8517 331.12 94.9804 329.384C88.8616 317.337 80.0654 290.233 80.0654 290.233L96.8936 254.094L113.36 251.095Z" fill="black"/>
<path d="M94.9974 453.298C94.9974 453.298 72.4296 457.602 71.6655 460.181C70.9013 462.759 71.6655 456.736 71.6655 456.736C71.6655 456.736 58.6467 412.422 61.7203 373.271C64.7938 334.121 57.8939 308.328 57.8939 308.328C57.8939 308.328 49.8619 279.072 54.4524 262.295C59.0429 245.518 107.235 252.827 107.235 252.827C107.235 252.827 90.4069 297.116 90.7918 318.21C90.7918 318.21 88.8786 381.88 85.4371 389.195C85.4371 389.195 90.7918 451.579 94.9974 453.298Z" fill="#4D4981"/>
<path d="M92.3201 122.023C92.3201 122.023 90.0276 137.941 67.075 131.058L82.3579 261.843C82.3579 261.843 126.724 263.562 126.344 257.539L117.18 178.39L92.3201 122.023Z" fill="white"/>
<path opacity="0.1" d="M91.7483 121.17C91.7483 121.17 96.0955 126.417 102.797 127.072C106.605 127.403 110.306 128.643 113.654 130.708C117.616 133.185 121.935 136.788 123.276 141.182C125.954 149.784 142.782 163.982 150.446 160.97L147.769 186.782C147.769 186.782 125.971 185.509 122.144 176.028L128.648 268.095H122.92C122.92 268.095 119.858 243.143 117.565 237.979C115.273 232.815 110.682 204.425 110.297 197.536C109.912 190.647 104.178 151.057 99.203 144.187L91.7427 123.749L91.7483 121.17Z" fill="black"/>
<path opacity="0.1" d="M91.7483 122.463C91.7483 122.463 96.8426 127.283 103.561 127.932C107.369 128.265 111.07 129.506 114.418 131.574C118.38 134.051 122.699 137.654 124.041 142.048C126.718 150.649 143.546 164.848 151.21 161.836L148.533 187.648C148.533 187.648 126.735 186.375 122.908 176.894L129.435 268.948H123.684C123.684 268.948 120.622 243.996 118.329 238.832C116.037 233.669 111.446 205.278 111.061 198.389C110.676 191.5 104.943 151.91 99.9671 145.04L91.7427 125.035L91.7483 122.463Z" fill="black"/>
<path d="M91.7483 121.603C91.7483 121.603 96.8426 126.423 103.561 127.072C107.369 127.403 111.07 128.643 114.418 130.708C118.38 133.185 122.699 136.788 124.041 141.182C126.718 149.784 143.546 163.982 151.21 160.97L148.533 186.782C148.533 186.782 126.735 185.509 122.908 176.028L129.435 268.089H123.684C123.684 268.089 120.622 243.136 118.329 237.973C116.037 232.809 111.446 204.419 111.061 197.53C110.676 190.641 104.943 151.051 99.9671 144.181L91.7427 124.175L91.7483 121.603Z" fill="#FD6F8D"/>
<path opacity="0.1" d="M72.2654 105.036C72.7635 100.961 71.7673 98.4146 71.3088 93.633L93.1068 112.135C93.1068 112.135 92.586 114.638 92.1898 118.292C91.1024 118.49 90.0027 118.59 88.9012 118.592C81.271 118.592 75.8258 111.925 72.2654 105.036Z" fill="black"/>
<path d="M88.8787 117.299C100.286 117.299 109.533 106.897 109.533 94.066C109.533 81.2346 100.286 70.8328 88.8787 70.8328C77.4715 70.8328 68.2241 81.2346 68.2241 94.066C68.2241 106.897 77.4715 117.299 88.8787 117.299Z" fill="#FEC3BE"/>
<path opacity="0.1" d="M111.418 71.2976C111.54 67.3756 110.962 63.4659 109.72 59.7988C110.055 60.3735 110.195 61.0645 110.115 61.746C110.035 62.4274 109.74 63.0537 109.284 63.5108C108.617 59.5138 106.792 55.8778 104.093 53.1708C105.565 53.4382 106.318 55.4947 105.961 57.1247C105.605 58.7546 104.484 60.0089 103.409 61.1677C103.533 58.7037 102.09 56.4116 100.256 55.0554C98.4218 53.6992 96.2369 53.1453 94.1029 52.5468C94.8448 52.8432 95.4787 53.4073 95.9056 54.1513C96.3326 54.8954 96.5287 55.7774 96.4633 56.6599C96.458 56.96 96.3482 57.2457 96.1576 57.4558C95.951 57.6064 95.7074 57.6799 95.4614 57.6659C93.306 57.7615 91.1473 57.7105 88.9973 57.5131C86.3551 57.1784 83.6977 57.0189 81.0389 57.0355C72.6842 57.4303 64.3635 63.8164 62.5013 72.953C62.116 75.1642 61.9133 77.4107 61.8956 79.6638L61.5107 91.2072C61.3919 94.569 61.273 97.9753 61.873 101.273C62.4493 104.344 63.6213 107.235 65.3052 109.737C66.9891 112.24 69.1434 114.294 71.6144 115.752C74.6144 110.862 74.8804 104.578 75.9219 98.7521C76.0835 97.4021 76.5278 96.1146 77.2182 94.9956C77.971 93.9386 79.2955 93.2701 80.4162 93.7731C81.537 94.2761 82.0238 96.2053 81.0898 97.0648C81.8936 98.1663 83.4785 97.345 84.4011 96.3645C87.0266 93.565 88.8346 89.9349 89.586 85.9544C89.9596 83.9488 90.3332 81.4975 92.0539 80.8035C92.6562 80.6172 93.2858 80.5696 93.9048 80.6635C97.5444 80.9436 103.239 82.6372 106.771 81.3384C110.059 80.1286 111.418 74.7549 111.418 71.2976Z" fill="black"/>
<path d="M111.039 70.8646C111.16 66.9426 110.583 63.0329 109.341 59.3658C109.676 59.9405 109.816 60.6316 109.736 61.313C109.656 61.9944 109.361 62.6208 108.905 63.0778C108.238 59.0808 106.412 55.4448 103.714 52.7378C105.186 53.0052 105.939 55.0617 105.582 56.6917C105.226 58.3217 104.105 59.576 103.029 60.7347C103.154 58.2707 101.711 55.9786 99.8766 54.6224C98.0426 53.2663 95.8577 52.7123 93.7238 52.1138C94.4657 52.4102 95.0995 52.9743 95.5265 53.7184C95.9534 54.4624 96.1495 55.3444 96.0841 56.2269C96.0788 56.527 95.9691 56.8127 95.7785 57.0228C95.5718 57.1734 95.3282 57.2469 95.0822 57.2329C92.9268 57.3285 90.7682 57.2775 88.6182 57.0801C85.976 56.7454 83.3186 56.586 80.6597 56.6026C72.3051 56.9973 63.9844 63.3834 62.1221 72.52C61.7332 74.7415 61.5286 76.9987 61.5108 79.2627L61.1033 90.7742C60.9844 94.136 60.8655 97.5423 61.4655 100.84C62.0418 103.911 63.2138 106.802 64.8977 109.304C66.5816 111.807 68.736 113.861 71.207 115.319C74.2069 110.429 74.473 104.145 75.5145 98.3191C75.676 96.9691 76.1203 95.6816 76.8107 94.5626C77.5635 93.5056 78.888 92.8371 80.0088 93.3401C81.1295 93.8431 81.6163 95.7723 80.6824 96.6318C81.4861 97.7333 83.071 96.912 83.9937 95.9315C86.6191 93.132 88.4272 89.5019 89.1785 85.5214C89.5521 83.5158 89.9257 81.0645 91.6464 80.3705C92.2487 80.1842 92.8783 80.1366 93.4974 80.2305C97.137 80.5106 102.831 82.2042 106.363 80.9054C109.675 79.702 111.039 74.3219 111.039 70.8646Z" fill="#FAD375"/>
<path opacity="0.1" d="M152.178 160.964C152.178 160.964 155.24 176.881 149.501 186.776L146.252 186.477L148.023 161.231L152.178 160.964Z" fill="black"/>
<path d="M151.414 160.964C151.414 160.964 154.476 176.881 148.737 186.776L145.488 186.477L147.259 161.231L151.414 160.964Z" fill="#FD6F8D"/>
<path opacity="0.1" d="M69.1807 117.516L44.5299 141.392C44.5299 141.392 29.9942 158.169 36.113 185.273C36.113 185.273 38.7904 224.85 41.8526 226.576C41.8526 226.576 52.5619 250.669 53.3261 273.469C53.3261 273.469 67.6694 240.997 74.1731 260.779C80.6768 280.562 95.7843 283.363 95.7843 283.363L87.3504 166.344C87.3504 166.344 66.1241 124.825 69.1807 117.516Z" fill="black"/>
<path d="M68.4164 117.516L43.7487 141.392C43.7487 141.392 29.2129 158.169 35.3318 185.273C35.3318 185.273 38.0091 224.85 41.0713 226.576C41.0713 226.576 51.7807 250.669 52.5448 273.469C52.5448 273.469 67.6523 239.265 74.156 259.054C80.6597 278.842 95.003 283.363 95.003 283.363L86.5861 166.344C86.5861 166.344 65.3598 124.825 68.4164 117.516Z" fill="#FD6F8D"/>
<path d="M57.1353 218.401C57.1353 218.401 51.0165 213.67 41.0713 226.576L65.5466 276.48L73.771 262.473C73.771 262.473 56.3712 223.991 57.1353 218.401Z" fill="#FEC3BE"/>
<path opacity="0.1" d="M63.0617 221.196C63.0617 221.196 49.5278 238.297 44.2467 235.553L39.3562 222.749L57.707 213.88L63.0617 221.196Z" fill="black"/>
<path d="M63.0617 220.336C63.0617 220.336 49.5278 237.438 44.2467 234.719L39.3562 221.915L57.707 213.046L63.0617 220.336Z" fill="#FD6F8D"/>
<path opacity="0.1" d="M72.9447 259.258C72.9447 259.258 66.5033 274.112 63.0618 274.978L68.0315 281.434L75.2994 265.917L72.9447 259.258Z" fill="black"/>
<path d="M73.3297 259.684C73.3297 259.684 66.8883 274.538 63.4468 275.404L68.4166 281.835L75.6618 266.37L73.3297 259.684Z" fill="#4D4981"/>
<path opacity="0.1" d="M61.1486 167.866C61.1486 167.866 60.3845 198.841 63.4411 210.455L61.1486 167.866Z" fill="black"/>
<path opacity="0.1" d="M123.112 173.87C123.112 173.87 118.522 172.151 118.522 167.847L123.112 173.87Z" fill="black"/>
<g opacity="0.5">
<path opacity="0.5" d="M378.858 174.628C378.824 178.696 379.254 182.459 380.42 185.407L381.552 203.871C381.552 203.871 381.835 203.693 382.35 203.413C381.665 210.416 382.158 223.246 394.384 225.659C394.658 225.578 394.914 225.435 395.137 225.239C395.98 223.329 396.736 221.372 397.401 219.375L397.542 219.426L397.401 220.215L398.306 220.534C393.897 231.281 394.91 253.642 395.889 255.832C396.303 256.749 396.614 259.449 396.846 262.511C397.279 268.458 397.089 274.442 396.28 280.339C395.714 284.407 395.544 289.399 397.412 291.475C400.808 295.244 400.429 324.156 400.429 324.156C400.663 324.807 400.925 325.445 401.216 326.066L400.05 326.251C400.05 326.251 400.05 337.565 401.935 345.524C403.022 350.102 401.482 356.068 399.982 360.308C397.906 366.013 397.45 372.3 398.674 378.308C399.778 383.49 402.071 388.66 406.842 390.36C417.41 394.13 419.674 374.443 419.674 374.443C419.674 374.443 419.295 359.359 419.674 357.252C419.793 356.615 420.336 354.807 421.038 352.63C423.589 344.686 424.555 336.209 423.869 327.798L423.433 322.501L421.384 322.832C421.35 322.284 421.321 321.711 421.293 321.113C421.265 320.514 421.242 320.081 421.22 319.54C421.197 318.999 421.174 318.445 421.152 317.872C421.129 317.299 421.106 316.72 421.089 316.128C421.089 315.83 421.08 315.531 421.061 315.23C420.976 312.517 420.903 309.621 420.84 306.755C420.84 305.482 420.789 304.209 420.772 302.967C420.772 302.037 420.744 301.114 420.733 300.223C420.733 299.926 420.733 299.629 420.733 299.331C420.733 297.867 420.699 296.466 420.693 295.174C420.693 294.915 420.693 294.66 420.693 294.41C420.693 293.909 420.693 293.429 420.693 292.971C420.693 292.742 420.693 292.517 420.693 292.296C420.693 291.857 420.693 291.443 420.693 291.023C420.693 290.602 420.693 290.258 420.693 289.921C420.693 289.584 420.693 289.284 420.693 288.979C420.693 287.406 420.75 286.706 420.806 287.285C420.993 289.195 421.559 300.694 420.806 286.012C420.195 274.175 429.67 245.957 433.344 235.521C434.516 236.203 435.65 236.965 436.74 237.801C437.997 254.266 436.27 285.827 435.716 295.104V295.142C435.67 295.861 435.636 296.415 435.608 296.867V296.944L435.58 297.402V297.53V297.663V297.733C435.58 297.733 430.672 332.115 430.672 340.055C430.672 346.186 427.984 355.055 426.75 358.799C424.955 359.678 423.501 360.582 423.501 360.582L423.88 392.009C423.88 392.009 419.731 407.513 434.821 411.282C449.912 415.052 443.499 395.779 443.499 395.779L442.367 381.95L447.648 360.582L446.165 360.244C449.3 348.975 457.7 317.968 457.083 311.142C456.393 303.502 459.783 295.174 460.389 293.76L460.48 293.544C457.242 286.031 467.085 246.428 471.574 229.339C477.172 226.334 481.23 223.991 481.23 223.991C481.23 223.991 481.117 223.755 480.919 223.354L481.23 223.176C478.819 218.088 476.879 212.735 475.44 207.201L475.762 206.832L475.519 206.061C476.289 205.227 476.708 204.737 476.708 204.737C476.708 204.737 487.649 206.832 485.011 200.968C482.374 195.104 483.127 186.324 483.127 186.324V154.119L488.408 156.074C498.342 157.914 500.119 145.435 500.068 135.865C500.083 132.111 499.844 128.361 499.355 124.647C499.355 124.647 491.81 59.7033 478.598 61.798C466.225 63.7591 455.346 55.6157 454.015 54.5715C453.853 54.0112 453.708 53.4594 453.58 52.9161C454.319 51.9745 454.982 50.9602 455.561 49.8854C455.974 49.8854 456.393 49.8217 456.789 49.7708C456.789 49.6434 456.789 49.5225 456.789 49.3951L457.168 49.3506C457.128 47.8963 457.346 46.4476 457.808 45.0888C458.271 43.7301 458.969 42.4885 459.863 41.4364C460.592 40.6534 461.429 40.0084 462.342 39.5263C464.17 38.5649 466.236 38.2529 468.03 37.2214C468.666 36.8481 469.241 36.355 469.729 35.7634C470.861 34.6173 471.596 33.0192 471.206 31.4275C471.03 30.7207 470.64 30.0713 470.64 29.3391C470.64 28.3204 471.347 27.5054 471.772 26.6077C473.017 23.9717 471.885 20.6736 470.329 18.2414C468.772 15.8092 466.774 13.5171 466.202 10.601C465.97 9.40404 465.987 8.14338 465.636 6.97822C464.504 3.20259 460.168 2.07563 456.58 2.28574C452.991 2.49585 449.142 3.3554 446.04 1.3689C445.451 0.888599 444.817 0.482896 444.15 0.159168C443.366 -0.0489464 442.55 -0.0489464 441.767 0.159168C437.238 1.04418 433.067 3.57188 429.314 6.52616C427.8 7.66686 426.386 8.96736 425.091 10.41C424.236 11.3225 423.477 12.3414 422.827 13.4471C421.299 16.1021 420.563 19.4894 421.52 22.4627C422.06 24.1046 423.009 25.5368 424.253 26.5886C422.759 28.7876 421.67 31.3005 421.051 33.9796C420.432 36.6588 420.296 39.45 420.65 42.1893C421.003 44.9287 421.841 47.5608 423.112 49.931C424.383 52.3012 426.062 54.3617 428.052 55.9913C427.425 57.1471 426.713 58.2418 425.923 59.264V59.0984C425.923 59.0984 414.416 65.5928 410.261 64.7523C406.208 63.931 395.68 71.5141 395.895 86.693C395.895 87.075 395.895 87.4698 395.895 87.8645L389.103 111.556C386.37 121.072 384.978 131.01 384.976 141.01C384.976 141.01 378.739 160.073 378.858 174.628ZM397.101 184.662L406.078 146.995V155.234L400.418 177.862C400.418 177.862 399.286 185.432 398.42 193.474L397.101 184.662Z" fill="url(#paint2_linear)"/>
</g>
<path d="M423.869 317.076L424.287 322.253C424.948 330.477 424.012 338.766 421.542 346.543C420.869 348.676 420.342 350.433 420.229 351.063C419.867 353.113 420.229 367.853 420.229 367.853C420.229 367.853 418.044 387.1 407.85 383.414C403.265 381.759 401.057 376.697 399.971 371.635C398.791 365.765 399.231 359.63 401.233 354.049C402.682 349.904 404.165 344.079 403.118 339.603C401.295 331.822 401.295 320.769 401.295 320.769L423.869 317.076Z" fill="#5A5773"/>
<path d="M434.787 228.225C434.787 228.225 420.591 267.127 421.321 281.453C422.052 295.779 421.502 284.522 421.321 282.682C420.999 279.403 421.321 318.337 422.414 322.794C422.414 322.794 407.488 335.076 401.663 318.7C401.663 318.7 402.025 290.45 398.754 286.763C396.954 284.738 397.129 279.861 397.661 275.882C398.446 270.126 398.636 264.286 398.227 258.481C398.006 255.488 397.701 252.852 397.305 251.955C396.212 249.497 395.12 221.654 401.674 213.874L434.787 228.225Z" fill="#605D82"/>
<path opacity="0.1" d="M420.591 322.813C419.499 318.311 419.176 279.403 419.499 282.701C419.68 284.541 420.229 295.804 419.499 281.472C418.769 267.14 432.965 228.244 432.965 228.244L401.205 214.504C401.352 214.294 401.505 214.097 401.657 213.912L434.782 228.244C434.782 228.244 420.586 267.146 421.316 281.472C422.046 295.798 421.497 284.541 421.316 282.701C420.993 279.422 421.316 318.356 422.408 322.813C422.408 322.813 416.448 327.715 410.589 327.193C415.803 326.748 420.591 322.813 420.591 322.813Z" fill="black"/>
<path d="M447.161 354.342L442.066 375.226L443.159 388.737C443.159 388.737 449.346 407.57 434.787 403.884C420.229 400.197 424.231 385.05 424.231 385.05L423.868 354.342C423.868 354.342 429.693 350.656 432.24 351.07C434.787 351.483 447.161 354.342 447.161 354.342Z" fill="#5A5773"/>
<path d="M472.281 218.401C472.281 218.401 455.538 279.409 459.54 288.839C459.54 288.839 455.538 297.848 456.263 306.03C456.987 314.211 444.614 358.029 444.614 358.029L426.41 354.342C426.41 354.342 430.78 342.06 430.78 334.28C430.78 326.499 435.512 292.894 435.512 292.894C435.512 292.894 439.514 231.472 434.782 224.92L472.281 218.401Z" fill="#605D82"/>
<g opacity="0.1">
<path opacity="0.1" d="M436.197 229.893C439.214 243.799 435.88 294.97 435.88 294.97C435.88 294.97 431.148 328.543 431.148 336.356C431.148 342.296 428.606 350.853 427.401 354.572L426.416 354.374C426.416 354.374 430.786 342.092 430.786 334.312C430.786 326.531 435.518 292.926 435.518 292.926C435.518 292.926 438.563 246.18 436.197 229.893Z" fill="black"/>
<path opacity="0.1" d="M459.54 288.839L459.45 289.049C459.421 288.839 459.393 288.616 459.376 288.412C459.424 288.557 459.479 288.7 459.54 288.839Z" fill="black"/>
<path opacity="0.1" d="M435.608 226.92C435.443 226.213 435.165 225.547 434.787 224.952L472.281 218.401C472.281 218.401 472.061 219.197 471.681 220.616L435.608 226.92Z" fill="black"/>
</g>
<path d="M384.914 196.288C384.914 196.288 379.452 219.209 395.833 222.495C396.099 222.417 396.347 222.278 396.563 222.087C396.563 222.087 406.027 201.203 398.748 193.015L384.914 196.288Z" fill="#A1616A"/>
<path d="M451.898 43.9641C451.898 43.9641 450.806 61.155 462.817 69.3493C474.828 77.5436 437.346 100.057 437.346 100.057L417.676 64.8478C417.676 64.8478 426.036 66.0767 431.131 49.7008L451.898 43.9641Z" fill="#A1616A"/>
<path opacity="0.1" d="M459.902 70.5781C459.902 70.5781 441.336 113.982 424.593 73.0358L398.748 217.172C398.748 217.172 438.789 231.096 439.151 237.648C439.514 244.2 479.555 220.858 479.555 220.858C479.555 220.858 470.821 202.84 473 191.787C475.179 180.733 459.902 70.5781 459.902 70.5781Z" fill="black"/>
<path d="M459.902 69.7632C459.902 69.7632 441.336 113.167 424.593 72.2208L398.748 216.35C398.748 216.35 438.789 230.262 439.157 236.82C439.525 243.378 479.56 220.031 479.56 220.031C479.56 220.031 470.826 202.012 473.006 190.959C475.185 179.906 459.902 69.7632 459.902 69.7632Z" fill="#E1E7EF"/>
<path d="M441.704 365.803C441.704 365.803 446.436 353.928 435.517 353.928C424.599 353.928 426.416 364.606 426.416 364.606L441.704 365.803Z" fill="#5A5773"/>
<path d="M416.952 335.095C416.952 335.095 421.321 322.399 410.397 321.992C399.472 321.584 404.935 333.452 404.935 333.452L416.952 335.095Z" fill="#5A5773"/>
<path opacity="0.1" d="M426.234 60.5501C426.234 60.5501 415.135 66.9171 411.127 66.0767C407.12 65.2362 396.569 73.0358 397.293 88.5967L390.716 111.836C388.085 121.144 386.748 130.854 386.754 140.621C386.754 140.621 377.29 170.101 382.384 183.204L383.476 201.222C383.476 201.222 391.831 195.881 400.565 197.517L398.38 182.777L408.206 141.01L424.587 96.3772L426.234 60.5501Z" fill="black"/>
<path d="M426.234 59.7288C426.234 59.7288 415.135 66.0958 411.127 65.2553C407.12 64.4149 396.569 72.2144 397.293 87.7754L390.716 110.996C388.085 120.304 386.748 130.014 386.754 139.781C386.754 139.781 377.29 169.26 382.384 182.363L383.476 200.382C383.476 200.382 391.848 195.059 400.587 196.696L398.403 181.956L408.229 140.188L424.61 95.5558L426.234 59.7288Z" fill="#67647E"/>
<path opacity="0.1" d="M407.85 109.48V155.769L402.387 177.881C402.387 177.881 398.748 202.037 399.84 209.41C400.933 216.783 418.406 218.42 423.138 212.276C427.87 206.131 425.323 153.699 425.323 153.699L426.234 76.926L425.504 74.4684L407.85 109.48Z" fill="black"/>
<path d="M407.119 107.43V153.699L401.657 175.812C401.657 175.812 398.018 199.968 399.11 207.341C400.202 214.714 417.676 216.35 422.408 210.206C427.14 204.062 424.593 151.63 424.593 151.63L425.504 74.9077L407.119 107.43Z" fill="#67647E"/>
<path opacity="0.1" d="M480.472 145.925L468.823 186.674L474.285 204.075C474.285 204.075 448.44 234.783 432.059 220.043C432.059 220.043 430.236 157.392 433.882 142.652C437.527 127.913 454.995 78.3459 454.995 78.3459L458.634 65.2426L477.925 77.5245L480.472 145.925Z" fill="black"/>
<path d="M481.383 143.875V183.987C481.383 183.987 480.653 192.589 483.206 198.319C485.759 204.049 475.196 202.006 475.196 202.006C475.196 202.006 449.351 232.714 432.97 217.974C432.97 217.974 431.148 155.323 434.793 140.583C438.438 125.844 455.906 76.2766 455.906 76.2766L459.546 63.1733L478.836 75.4552L481.383 143.875Z" fill="#67647E"/>
<path d="M444.272 145.809L458.145 121.78L454.822 119.353L440.949 143.382L444.272 145.809Z" fill="#E6E6E6"/>
<path opacity="0.1" d="M442.71 148.083C445.169 143.78 445.46 139.059 443.36 137.54C441.259 136.021 437.562 138.279 435.102 142.582C432.643 146.886 432.352 151.606 434.453 153.125C436.553 154.644 440.25 152.387 442.71 148.083Z" fill="black"/>
<path d="M444.682 150.208C447.163 145.911 447.473 141.186 445.376 139.654C443.279 138.122 439.567 140.363 437.087 144.66C434.606 148.957 434.295 153.682 436.393 155.214C438.49 156.746 442.201 154.505 444.682 150.208Z" fill="#E6E6E6"/>
<path opacity="0.1" d="M443.97 149.688C445.986 146.196 446.238 142.356 444.534 141.112C442.83 139.867 439.814 141.688 437.799 145.18C435.783 148.672 435.53 152.511 437.234 153.756C438.938 155.001 441.954 153.18 443.97 149.688Z" fill="black"/>
<path opacity="0.1" d="M453.172 56.0423C453.172 56.0423 464.272 65.2553 477.013 63.2052C489.755 61.155 497.034 124.628 497.034 124.628C497.034 124.628 501.766 157.386 486.477 154.521L452.64 141.825C452.64 141.825 459.919 133.223 458.827 122.17L475.208 129.543L474.478 94.327L453.172 56.0423Z" fill="black"/>
<path opacity="0.1" d="M496.304 123.813C496.304 123.813 501.036 156.571 485.747 153.706L451.893 141.01C451.893 141.01 459.172 132.408 458.08 121.355L474.461 128.728L496.304 123.813Z" fill="black"/>
<path d="M458.866 125.672C458.866 125.672 447.546 108.869 439.163 116.93C430.78 124.99 455.889 139.781 455.889 139.781L458.866 125.672Z" fill="#A1616A"/>
<path d="M453.172 55.2273C453.172 55.2273 464.272 64.4403 477.013 62.3902C489.755 60.34 497.034 123.813 497.034 123.813C497.034 123.813 501.766 156.571 486.477 153.706L452.64 141.01C452.64 141.01 459.919 132.408 458.827 121.355L475.208 128.728L474.478 93.512L455.912 76.3212L453.172 55.2273Z" fill="#67647E"/>
<path opacity="0.1" d="M430.78 50.5157L451.531 44.7854C451.531 44.7854 450.449 46.1607 451.712 51.5408C448.372 55.8513 444.268 61.5752 438.789 61.5752C434.868 61.5835 431.05 60.1603 427.91 57.5194C429.082 55.3043 430.044 52.9569 430.78 50.5157Z" fill="black"/>
<path d="M439.151 60.7538C449.205 60.7538 457.355 51.5863 457.355 40.2776C457.355 28.9689 449.205 19.8013 439.151 19.8013C429.098 19.8013 420.948 28.9689 420.948 40.2776C420.948 51.5863 429.098 60.7538 439.151 60.7538Z" fill="#A1616A"/>
<path opacity="0.1" d="M432.263 31.3956C428.04 30.587 423.399 28.4796 421.984 23.9335C421.078 21.0238 421.768 17.713 423.246 15.1216C424.723 12.5302 426.897 10.5374 429.138 8.75461C432.778 5.87673 436.791 3.40633 441.172 2.54042C441.927 2.33727 442.715 2.33727 443.47 2.54042C444.127 2.84287 444.752 3.2273 445.332 3.68648C448.327 5.62841 452.051 4.78797 455.521 4.58423C458.991 4.38049 463.151 5.48197 464.244 9.16846C464.583 10.3082 464.561 11.537 464.81 12.7085C465.376 15.5737 467.295 17.8021 468.772 20.1897C470.249 22.5774 471.387 25.8054 470.142 28.3777C469.717 29.25 469.01 30.0522 469.01 31.0455C469.119 31.7514 469.309 32.4384 469.576 33.0893C470.091 35.2031 468.591 37.336 466.859 38.342C465.127 39.348 463.134 39.66 461.368 40.5959C459.715 41.5134 458.331 42.9457 457.381 44.7223C456.431 46.4989 455.954 48.5451 456.008 50.6176C454.4 50.8277 452.527 50.9359 451.44 49.5861C450.953 48.9813 450.715 48.1727 450.274 47.5296C449.708 46.6892 448.825 46.1925 448.1 45.5176C444.291 41.9967 446.997 37.1323 444.84 33.3376C443.708 31.3829 441.908 31.9814 440.085 32.0132C437.466 32.0822 434.847 31.8754 432.263 31.3956Z" fill="black"/>
<path d="M432.619 30.9754C428.397 30.1668 423.755 28.0593 422.34 23.5133C421.434 20.6036 422.125 17.2928 423.602 14.7014C425.08 12.11 427.253 10.1172 429.495 8.3344C433.134 5.45652 437.147 2.98612 441.529 2.12021C442.284 1.91706 443.071 1.91706 443.827 2.12021C444.484 2.42266 445.108 2.80709 445.689 3.26627C448.683 5.2082 452.408 4.36776 455.878 4.16402C459.347 3.96027 463.508 5.06176 464.6 8.74825C464.94 9.88794 464.917 11.1168 465.166 12.2883C465.732 15.1534 467.651 17.3819 469.128 19.7695C470.606 22.1571 471.743 25.3852 470.498 27.9575C470.074 28.8298 469.366 29.632 469.366 30.6252C469.475 31.3312 469.666 32.0182 469.932 32.6691C470.447 34.7829 468.947 36.9158 467.215 37.9218C465.483 38.9278 463.491 39.2398 461.725 40.1757C460.072 41.0932 458.688 42.5255 457.738 44.3021C456.787 46.0787 456.311 48.1249 456.364 50.1974C454.757 50.4075 452.883 50.5157 451.796 49.1659C451.31 48.5611 451.072 47.7525 450.63 47.1094C450.064 46.2689 449.181 45.7723 448.457 45.0974C444.647 41.5765 447.353 36.7121 445.196 32.9174C444.064 30.9627 442.264 31.5612 440.442 31.593C437.823 31.662 435.204 31.4552 432.619 30.9754Z" fill="#4A4347"/>
<path opacity="0.1" d="M410.578 99.8599C410.578 99.8599 406.576 123.201 408.393 132.211C409.503 137.452 409.339 142.932 407.918 148.077" fill="black"/>
<path opacity="0.1" d="M475.281 109.684C475.281 109.684 477.025 125.245 474.121 128.518L475.281 109.684Z" fill="black"/>
<path d="M373.633 301.452C373.858 301.452 374.074 301.351 374.233 301.172C374.393 300.993 374.482 300.75 374.482 300.497C374.482 300.243 374.393 300 374.233 299.821C374.074 299.642 373.858 299.542 373.633 299.542C373.408 299.542 373.192 299.642 373.033 299.821C372.873 300 372.784 300.243 372.784 300.497C372.784 300.75 372.873 300.993 373.033 301.172C373.192 301.351 373.408 301.452 373.633 301.452Z" fill="black"/>
<path d="M222.787 143.31L199.204 132.484L197.707 136.61L221.29 147.436L222.787 143.31Z" fill="#E6E6E6"/>
<path opacity="0.1" d="M232.092 149.981C233.037 147.376 230.384 143.695 226.167 141.76C221.95 139.824 217.765 140.366 216.82 142.971C215.875 145.575 218.528 149.256 222.745 151.192C226.962 153.127 231.147 152.585 232.092 149.981Z" fill="black"/>
<path d="M232.538 150.178C233.483 147.574 230.83 143.893 226.613 141.957C222.396 140.021 218.211 140.563 217.266 143.168C216.321 145.773 218.974 149.453 223.191 151.389C227.408 153.325 231.593 152.783 232.538 150.178Z" fill="#E6E6E6"/>
<path opacity="0.1" d="M231.107 149.521C231.875 147.405 229.719 144.414 226.292 142.841C222.866 141.268 219.465 141.709 218.697 143.825C217.93 145.941 220.085 148.932 223.512 150.505C226.939 152.078 230.34 151.638 231.107 149.521Z" fill="black"/>
</g>
<defs>
<linearGradient id="paint0_linear" x1="242.268" y1="458.583" x2="242.268" y2="152.222" gradientUnits="userSpaceOnUse">
<stop stop-color="#808080" stop-opacity="0.25"/>
<stop offset="0.54" stop-color="#808080" stop-opacity="0.12"/>
<stop offset="1" stop-color="#808080" stop-opacity="0.1"/>
</linearGradient>
<linearGradient id="paint1_linear" x1="-127680" y1="359068" x2="-127680" y2="57226.1" gradientUnits="userSpaceOnUse">
<stop stop-color="#808080" stop-opacity="0.25"/>
<stop offset="0.54" stop-color="#808080" stop-opacity="0.12"/>
<stop offset="1" stop-color="#808080" stop-opacity="0.1"/>
</linearGradient>
<linearGradient id="paint2_linear" x1="-100387" y1="156756" x2="-126330" y2="156756" gradientUnits="userSpaceOnUse">
<stop stop-color="#808080" stop-opacity="0.25"/>
<stop offset="0.54" stop-color="#808080" stop-opacity="0.12"/>
<stop offset="1" stop-color="#808080" stop-opacity="0.1"/>
</linearGradient>
<clipPath id="clip0">
<rect width="500" height="500" fill="white"/>
</clipPath>
</defs>
</svg>
